<ttFont>
<head>
    <!-- Most of this table will be recalculated by the compiler -->
    <tableVersion value="1.0"/>
    <fontRevision value="5.0"/>
    <checkSumAdjustment value="0xf163042"/>
    <magicNumber value="0x5f0f3cf5"/>
    <flags value="00000000 00000011"/>
    <unitsPerEm value="1000"/>
    <created value="Fri Oct 12 18:23:32 2018"/>
    <modified value="Sat Oct 13 12:28:07 2018"/>
    <xMin value="-714"/>
    <yMin value="-200"/>
    <xMax value="828"/>
    <yMax value="1100"/>
    <macStyle value="00000000 00000000"/>
    <lowestRecPPEM value="3"/>
    <fontDirectionHint value="2"/>
    <indexToLocFormat value="0"/>
    <glyphDataFormat value="0"/>
  </head>
        <CharString name=".notdef">
          664 1000 rmoveto
          -500 -1200 500 hlineto
          -400 100 rmoveto
          1000 300 -1000 vlineto
          endchar
        </CharString>
        <CharString name=".null">
          -107 endchar
        </CharString>
        <CharString name="A">
          764 500 rmoveto
          -100 100 -100 100 -300 -100 -100 -100 -100 -500 200 200 300 -200 200 hlineto
          -500 300 rmoveto
          200 100 100 100 -100 100 -200 vlineto
          endchar
        </CharString>
        <CharString name="AE">
          814 102 rmoveto
          -200 198 199 100 -199 200 200 100 -601 -100 -99 -100 -100 -500 200 200 200 -200 400 hlineto
          -600 300 rmoveto
          200 100 100 100 -300 vlineto
          endchar
        </CharString>
        <CharString name="Aacute">
          764 500 rmoveto
          -100 100 -100 100 -300 -100 -100 -100 -100 -500 200 200 300 -200 200 hlineto
          -500 300 rmoveto
          200 100 100 100 -100 100 -200 vlineto
          -62 500 rmoveto
          100 100 100 -200 -100 -100 -100 vlineto
          endchar
        </CharString>
        <CharString name="Abreve">
          764 500 rmoveto
          -100 100 -100 100 -300 -100 -100 -100 -100 -500 200 200 300 -200 200 hlineto
          -500 300 rmoveto
          200 100 100 100 -100 100 -200 vlineto
          -52 700 rmoveto
          -100 -200 100 -100 -200 400 200 vlineto
          endchar
        </CharString>
        <CharString name="Acircumflex">
          764 500 rmoveto
          -100 100 -100 100 -300 -100 -100 -100 -100 -500 200 200 300 -200 200 hlineto
          -500 300 rmoveto
          200 100 100 100 -100 100 -200 vlineto
          -200 500 rmoveto
          100 100 -100 200 100 -100 100 -300 -100 -100 -100 vlineto
          endchar
        </CharString>
        <CharString name="Adieresis">
          764 500 rmoveto
          -100 100 -100 100 -300 -100 -100 -100 -100 -500 200 200 300 -200 200 hlineto
          -500 300 rmoveto
          200 100 100 100 -100 100 -200 vlineto
          -101 700 rmoveto
          -200 200 200 vlineto
          -500 -200 rmoveto
          200 200 -200 hlineto
          endchar
        </CharString>
        <CharString name="Agrave">
          764 500 rmoveto
          -100 100 -100 100 -300 -100 -100 -100 -100 -500 200 200 300 -200 200 hlineto
          -500 300 rmoveto
          200 100 100 100 -100 100 -200 vlineto
          -62 500 rmoveto
          100 -100 100 -200 -100 100 -100 vlineto
          endchar
        </CharString>
        <CharString name="Alphatonos">
          764 500 rmoveto
          -100 100 -100 100 -200 -100 -100 -100 -100 -500 200 200 200 -200 200 hlineto
          -400 300 rmoveto
          200 200 -200 vlineto
          -400 200 rmoveto
          300 -100 -300 vlineto
          endchar
        </CharString>
        <CharString name="Amacron">
          764 500 rmoveto
          -100 100 -100 100 -300 -100 -100 -100 -100 -500 200 200 300 -200 200 hlineto
          -500 300 rmoveto
          200 100 100 100 -100 100 -200 vlineto
          500 vmoveto
          100 -300 -100 vlineto
          endchar
        </CharString>
        <CharString name="Aogonek">
          764 hmoveto
          500 -100 100 -100 100 -300 -100 -100 -100 -100 -500 200 200 300 -200 vlineto
          -300 300 rmoveto
          200 100 100 100 -100 100 -200 vlineto
          200 -500 rmoveto
          100 -200 100 -100 -200 vlineto
          endchar
        </CharString>
        <CharString name="Aring">
          564 1000 rmoveto
          -300 -400 -100 -100 -100 -500 200 200 300 -200 200 500 -100 100 -100 hlineto
          -300 -300 rmoveto
          200 100 100 100 -100 100 -200 vlineto
          -200 500 rmoveto
          100 100 -100 vlineto
          endchar
        </CharString>
        <CharString name="Atilde">
          764 500 rmoveto
          -100 100 -100 100 -300 -100 -100 -100 -100 -500 200 200 300 -200 200 hlineto
          -500 300 rmoveto
          200 100 100 100 -100 100 -200 vlineto
          -252 500 rmoveto
          100 100 100 -100 -100 -100 -100 vlineto
          300 hmoveto
          100 100 100 -100 -100 -100 -100 vlineto
          endchar
        </CharString>
        <CharString name="B">
          764 300 rmoveto
          -100 100 100 200 -100 100 -600 -700 600 100 100 hlineto
          -500 300 rmoveto
          200 300 -200 vlineto
          -300 -300 rmoveto
          200 300 -200 vlineto
          endchar
        </CharString>
        <CharString name="C">
          764 200 rmoveto
          -200 -100 -200 100 -100 300 100 100 200 -100 200 100 -100 100 -400 -100 -100 -100 -100 -300 100 -100 100 -100 400 100 100 hlineto
          endchar
        </CharString>
        <CharString name="CR">
          endchar
        </CharString>
        <CharString name="Cacute">
          764 200 rmoveto
          -200 -100 -200 100 -100 300 100 100 200 -100 200 100 -100 100 -400 -100 -100 -100 -100 -300 100 -100 100 -100 400 100 100 hlineto
          -213 700 rmoveto
          100 100 100 -200 -100 -100 -100 vlineto
          endchar
        </CharString>
        <CharString name="Ccaron">
          764 200 rmoveto
          -200 -100 -200 100 -100 300 100 100 200 -100 200 100 -100 100 -400 -100 -100 -100 -100 -300 100 -100 100 -100 400 100 100 hlineto
          -252 900 rmoveto
          -100 -100 100 -200 -100 100 -100 300 100 100 100 vlineto
          endchar
        </CharString>
        <CharString name="Ccedilla">
          464 -200 rmoveto
          100 100 100 100 100 100 100 -200 -100 -200 100 -100 300 100 100 200 -100 200 100 -100 100 -400 -100 -100 -100 -100 -300 100 -100 100 -100 100 -100 -100 -100 vlineto
          endchar
        </CharString>
        <CharString name="Cdotaccent">
          764 200 rmoveto
          -200 -100 -200 100 -100 300 100 100 200 -100 200 100 -100 100 -400 -100 -100 -100 -100 -300 100 -100 100 -100 400 100 100 hlineto
          -400 700 rmoveto
          200 200 -200 hlineto
          endchar
        </CharString>
        <CharString name="D">
          764 500 rmoveto
          -100 100 -100 100 -500 -700 500 100 100 100 100 hlineto
          -300 hmoveto
          -100 -200 500 200 -100 100 -300 vlineto
          endchar
        </CharString>
        <CharString name="Dcaron">
          764 500 rmoveto
          -100 100 -100 100 -500 -700 500 100 100 100 100 hlineto
          -300 hmoveto
          -100 -200 500 200 -100 100 -300 vlineto
          -152 800 rmoveto
          -100 -100 100 -200 -100 100 -100 300 100 100 100 vlineto
          endchar
        </CharString>
        <CharString name="Delta">
          764 500 rmoveto
          -100 100 -100 100 -300 -100 -100 -100 -100 -500 700 hlineto
          -500 100 rmoveto
          400 100 100 100 -100 100 -400 vlineto
          endchar
        </CharString>
        <CharString name="E">
          764 100 rmoveto
          -500 200 400 100 -400 200 500 100 -700 -700 700 hlineto
          endchar
        </CharString>
        <CharString name="Eacute">
          764 100 rmoveto
          -500 200 400 100 -400 200 500 100 -700 -700 700 hlineto
          -271 800 rmoveto
          100 100 100 -200 -100 -100 -100 vlineto
          endchar
        </CharString>
        <CharString name="Ebreve">
          764 100 rmoveto
          -500 200 400 100 -400 200 500 100 -700 -700 700 hlineto
          -241 1000 rmoveto
          -100 -200 100 -100 -200 400 200 vlineto
          endchar
        </CharString>
        <CharString name="Ecaron">
          764 100 rmoveto
          -500 200 400 100 -400 200 500 100 -700 -700 700 hlineto
          -300 1000 rmoveto
          -100 -100 100 -200 -100 100 -100 300 100 100 100 vlineto
          endchar
        </CharString>
        <CharString name="Ecircumflex">
          764 100 rmoveto
          -500 200 400 100 -400 200 500 100 -700 -700 700 hlineto
          -400 800 rmoveto
          100 100 -100 200 100 -100 100 -300 -100 -100 -100 vlineto
          endchar
        </CharString>
        <CharString name="Edieresis">
          764 100 rmoveto
          -500 200 400 100 -400 200 500 100 -700 -700 700 hlineto
          -300 1000 rmoveto
          -200 200 200 vlineto
          -500 -200 rmoveto
          200 200 -200 hlineto
          endchar
        </CharString>
        <CharString name="Edotaccent">
          764 100 rmoveto
          -500 200 400 100 -400 200 500 100 -700 -700 700 hlineto
          -441 800 rmoveto
          200 200 -200 hlineto
          endchar
        </CharString>
        <CharString name="Egrave">
          764 100 rmoveto
          -500 200 400 100 -400 200 500 100 -700 -700 700 hlineto
          -230 800 rmoveto
          100 -100 100 -200 -100 100 -100 vlineto
          endchar
        </CharString>
        <CharString name="Emacron">
          764 100 rmoveto
          -500 200 400 100 -400 200 500 100 -700 -700 700 hlineto
          -200 800 rmoveto
          100 -300 -100 vlineto
          endchar
        </CharString>
        <CharString name="Eng">
          764 600 rmoveto
          -100 100 -600 -700 200 600 300 -700 -200 -100 300 100 100 hlineto
          endchar
        </CharString>
        <CharString name="Eogonek">
          764 -200 rmoveto
          100 -200 100 200 100 -500 200 400 100 -400 200 500 100 -700 -700 400 -200 vlineto
          endchar
        </CharString>
        <CharString name="Epsilontonos">
          164 500 rmoveto
          300 -100 -300 vlineto
          700 -400 rmoveto
          -300 200 200 100 -200 200 300 100 -500 -700 500 hlineto
          endchar
        </CharString>
        <CharString name="Etatonos">
          164 500 rmoveto
          300 -100 -300 vlineto
          700 200 rmoveto
          -200 -300 -100 300 -200 -700 200 300 100 -300 200 hlineto
          endchar
        </CharString>
        <CharString name="Eth">
          764 500 rmoveto
          -100 100 -100 100 -400 -300 -100 -100 100 -300 400 100 100 100 100 hlineto
          -300 200 rmoveto
          -100 200 100 -100 100 -300 -100 -100 -100 200 100 hlineto
          endchar
        </CharString>
        <CharString name="Euro">
          664 300 rmoveto
          -300 100 400 100 -400 100 400 100 -500 -100 -100 -100 -100 -100 101 -100 -101 -100 100 -100 100 -100 500 100 -400 100 300 hlineto
          endchar
        </CharString>
        <CharString name="F">
          764 700 rmoveto
          -700 -700 200 300 400 100 -400 200 500 hlineto
          endchar
        </CharString>
        <CharString name="G">
          764 400 rmoveto
          -300 -100 100 -200 -200 100 -100 300 100 100 400 100 -500 -100 -100 -100 -100 -300 100 -98 100 -102 500 hlineto
          endchar
        </CharString>
        <CharString name="Gbreve">
          764 400 rmoveto
          -300 -100 100 -200 -200 100 -100 300 100 100 400 100 -500 -100 -100 -100 -100 -300 100 -98 100 -102 500 hlineto
          -201 1000 rmoveto
          -100 -200 100 -100 -200 400 200 vlineto
          endchar
        </CharString>
        <CharString name="Gcommaaccent">
          764 400 rmoveto
          -300 -100 100 -200 -200 100 -100 300 100 100 400 100 -500 -100 -100 -100 -100 -300 100 -98 100 -102 100 -100 -100 -100 200 100 100 100 200 hlineto
          endchar
        </CharString>
        <CharString name="Gdotaccent">
          764 400 rmoveto
          -300 -100 100 -200 -200 100 -100 300 100 100 400 100 -500 -100 -100 -100 -100 -300 100 -98 100 -102 500 hlineto
          -400 800 rmoveto
          200 200 -200 hlineto
          endchar
        </CharString>
        <CharString name="H">
          764 700 rmoveto
          -200 -300 -300 300 -200 -700 200 300 300 -300 200 hlineto
          endchar
        </CharString>
        <CharString name="Hbar">
          828 500 rmoveto
          100 -64 100 -200 -100 -300 100 -200 -100 -64 -100 64 -500 200 300 300 -300 200 500 vlineto
          -500 -100 rmoveto
          100 300 -100 vlineto
          endchar
        </CharString>
        <CharString name="I">
          714 700 rmoveto
          -600 -100 200 -500 -200 -100 600 100 -200 500 200 hlineto
          endchar
        </CharString>
        <CharString name="I.1">
          314 700 rmoveto
          -700 200 700 vlineto
          endchar
        </CharString>
        <CharString name="IJ">
          38 700 rmoveto
          -700 200 700 vlineto
          558 hmoveto
          -201 -600 -118 100 -199 -100 98 -100 319 102 101 hlineto
          endchar
        </CharString>
        <CharString name="Iacute">
          714 700 rmoveto
          -600 -100 200 -500 -200 -100 600 100 -200 500 200 hlineto
          -199 200 rmoveto
          100 100 100 -200 -100 -100 -100 vlineto
          endchar
        </CharString>
        <CharString name="Ibreve">
          714 700 rmoveto
          -600 -100 200 -500 -200 -100 600 100 -200 500 200 hlineto
          -199 400 rmoveto
          -100 -200 100 -100 -200 400 200 vlineto
          endchar
        </CharString>
        <CharString name="Icircumflex">
          714 700 rmoveto
          -600 -100 200 -500 -200 -100 600 100 -200 500 200 hlineto
          -350 200 rmoveto
          100 100 -100 200 100 -100 100 -300 -100 -100 -100 vlineto
          endchar
        </CharString>
        <CharString name="Idieresis">
          714 700 rmoveto
          -600 -100 200 -500 -200 -100 600 100 -200 500 200 hlineto
          -250 400 rmoveto
          -200 200 200 vlineto
          -500 -200 rmoveto
          200 200 -200 hlineto
          endchar
        </CharString>
        <CharString name="Idotaccent">
          714 700 rmoveto
          -600 -100 200 -500 -200 -100 600 100 -200 500 200 hlineto
          -400 200 rmoveto
          200 200 -200 hlineto
          endchar
        </CharString>
        <CharString name="Igrave">
          714 700 rmoveto
          -600 -100 200 -500 -200 -100 600 100 -200 500 200 hlineto
          -196 200 rmoveto
          100 -100 100 -200 -100 100 -100 vlineto
          endchar
        </CharString>
        <CharString name="Imacron">
          714 700 rmoveto
          -600 -100 200 -500 -200 -100 600 100 -200 500 200 hlineto
          -150 200 rmoveto
          100 -300 -100 vlineto
          endchar
        </CharString>
        <CharString name="Iogonek">
          714 -200 rmoveto
          100 -200 100 200 100 -200 500 200 100 -600 -100 200 -500 -200 -100 300 -200 vlineto
          endchar
        </CharString>
        <CharString name="Iotatonos">
          164 500 rmoveto
          300 -100 -300 vlineto
          700 200 rmoveto
          -500 -100 100 -500 -200 -100 600 100 -200 500 200 hlineto
          endchar
        </CharString>
        <CharString name="Itilde">
          714 700 rmoveto
          -600 -100 200 -500 -200 -100 600 100 -200 500 200 hlineto
          -400 200 rmoveto
          100 100 100 -100 -100 -100 -100 vlineto
          300 hmoveto
          100 100 100 -100 -100 -100 -100 vlineto
          endchar
        </CharString>
        <CharString name="J">
          764 700 rmoveto
          -200 -600 -300 100 -200 -100 100 -100 500 100 100 hlineto
          endchar
        </CharString>
        <CharString name="K">
          764 100 rmoveto
          -100 100 -100 100 -100 100 100 100 100 100 100 100 -200 -100 -100 -100 -100 -100 -100 300 -200 -700 200 200 100 -100 100 -100 300 hlineto
          endchar
        </CharString>
        <CharString name="Kcommaaccent">
          764 100 rmoveto
          -100 100 -100 100 -100 100 100 100 100 100 100 100 -200 -100 -100 -100 -100 -100 -100 300 -200 -700 200 200 100 -100 100 -100 300 hlineto
          -400 -200 rmoveto
          100 100 100 -200 -100 -100 -100 vlineto
          endchar
        </CharString>
        <CharString name="L">
          764 100 rmoveto
          -500 600 -200 -700 700 hlineto
          endchar
        </CharString>
        <CharString name="Lacute">
          764 100 rmoveto
          -500 600 -200 -700 700 hlineto
          -500 800 rmoveto
          100 100 100 -200 -100 -100 -100 vlineto
          endchar
        </CharString>
        <CharString name="Lambda">
          764 500 rmoveto
          -100 100 -100 100 -300 -100 -100 -100 -100 -500 200 500 100 100 100 -100 100 -500 200 hlineto
          endchar
        </CharString>
        <CharString name="Lcaron">
          764 100 rmoveto
          -500 600 -200 -700 700 hlineto
          -100 700 rmoveto
          -200 -200 100 -100 100 hlineto
          -100 hmoveto
          -100 -100 100 hlineto
          endchar
        </CharString>
        <CharString name="Lcommaaccent">
          464 -200 rmoveto
          100 100 100 200 100 -500 600 -200 -700 300 -100 -100 -100 vlineto
          endchar
        </CharString>
        <CharString name="Lslash">
          764 100 rmoveto
          -400 300 100 100 -100 200 -200 -400 -100 -100 100 -200 600 hlineto
          endchar
        </CharString>
        <CharString name="M">
          764 700 rmoveto
          -200 -100 -100 -100 -100 100 -100 100 -200 -700 200 300 100 -100 100 100 100 -300 200 hlineto
          endchar
        </CharString>
        <CharString name="N">
          764 700 rmoveto
          -200 -300 -100 100 -100 100 -100 100 -200 -700 200 300 100 -100 100 -100 100 -100 200 hlineto
          endchar
        </CharString>
        <CharString name="Nacute">
          764 700 rmoveto
          -200 -300 -100 100 -100 100 -100 100 -200 -700 200 300 100 -100 100 -100 100 -100 200 hlineto
          -260 800 rmoveto
          100 100 100 -200 -100 -100 -100 vlineto
          endchar
        </CharString>
        <CharString name="Ncaron">
          764 700 rmoveto
          -200 -300 -100 100 -100 100 -100 100 -200 -700 200 300 100 -100 100 -100 100 -100 200 hlineto
          -300 1000 rmoveto
          -100 -100 100 -200 -100 100 -100 300 100 100 100 vlineto
          endchar
        </CharString>
        <CharString name="Ncommaaccent">
          764 700 rmoveto
          -200 -300 -100 100 -100 100 -100 100 -200 -700 200 300 100 -100 100 -100 100 -100 200 hlineto
          -350 -200 rmoveto
          100 100 100 -200 -100 -100 -100 vlineto
          endchar
        </CharString>
        <CharString name="Ntilde">
          764 700 rmoveto
          -200 -300 -100 100 -100 100 -100 100 -200 -700 200 300 100 -100 100 -100 100 -100 200 hlineto
          -450 800 rmoveto
          100 100 100 -100 -100 -100 -100 vlineto
          300 hmoveto
          100 100 100 -100 -100 -100 -100 vlineto
          endchar
        </CharString>
        <CharString name="O">
          764 600 rmoveto
          -100 100 -500 -100 -100 -500 100 -100 500 100 100 hlineto
          -500 hmoveto
          500 300 -500 vlineto
          endchar
        </CharString>
        <CharString name="OE">
          805 100 rmoveto
          -244 200 194 100 -194 200 244 100 -687 -100 -100 -500 100 -100 687 hlineto
          -587 100 rmoveto
          500 142 -500 vlineto
          endchar
        </CharString>
        <CharString name="Oacute">
          764 600 rmoveto
          -100 100 -500 -100 -100 -500 100 -100 500 100 100 hlineto
          -500 hmoveto
          500 300 -500 vlineto
          -60 700 rmoveto
          100 100 100 -200 -100 -100 -100 vlineto
          endchar
        </CharString>
        <CharString name="Obreve">
          764 600 rmoveto
          -100 100 -500 -100 -100 -500 100 -100 500 100 100 hlineto
          -500 hmoveto
          500 300 -500 vlineto
          -50 900 rmoveto
          -100 -200 100 -100 -200 400 200 vlineto
          endchar
        </CharString>
        <CharString name="Ocircumflex">
          764 600 rmoveto
          -100 100 -500 -100 -100 -500 100 -100 500 100 100 hlineto
          -500 hmoveto
          500 300 -500 vlineto
          -200 700 rmoveto
          100 100 -100 200 100 -100 100 -300 -100 -100 -100 vlineto
          endchar
        </CharString>
        <CharString name="Odieresis">
          764 600 rmoveto
          -100 100 -500 -100 -100 -500 100 -100 500 100 100 hlineto
          -500 hmoveto
          500 300 -500 vlineto
          -101 900 rmoveto
          -200 200 200 vlineto
          -500 -200 rmoveto
          200 200 -200 hlineto
          endchar
        </CharString>
        <CharString name="Ograve">
          764 600 rmoveto
          -100 100 -500 -100 -100 -500 100 -100 500 100 100 hlineto
          -500 hmoveto
          500 300 -500 vlineto
          -40 700 rmoveto
          100 -100 100 -200 -100 100 -100 vlineto
          endchar
        </CharString>
        <CharString name="Ohungarumlaut">
          764 600 rmoveto
          -100 100 -500 -100 -100 -500 100 -100 500 100 100 hlineto
          -500 hmoveto
          500 300 -500 vlineto
          -200 700 rmoveto
          100 100 100 -200 -100 -100 -100 vlineto
          500 hmoveto
          100 100 100 -200 -100 -100 -100 vlineto
          endchar
        </CharString>
        <CharString name="Omacron">
          764 600 rmoveto
          -100 100 -500 -100 -100 -500 100 -100 500 100 100 hlineto
          -500 hmoveto
          500 300 -500 vlineto
          700 vmoveto
          100 -300 -100 vlineto
          endchar
        </CharString>
        <CharString name="Omega">
          564 600 rmoveto
          -400 -100 -200 300 100 -100 100 100 400 -100 100 -500 -100 -100 -400 100 -100 -100 -100 300 200 -100 400 vlineto
          endchar
        </CharString>
        <CharString name="Omegatonos">
          564 600 rmoveto
          -600 200 100 -100 100 100 400 -100 100 -300 -100 -100 -400 100 -100 -100 -100 200 600 vlineto
          -300 -100 rmoveto
          300 -100 -300 vlineto
          endchar
        </CharString>
        <CharString name="Omicrontonos">
          164 500 rmoveto
          300 -100 -300 vlineto
          700 100 rmoveto
          -100 100 -300 -100 -100 -500 100 -100 300 100 100 hlineto
          -300 hmoveto
          500 100 -500 vlineto
          endchar
        </CharString>
        <CharString name="Oslash">
          764 600 rmoveto
          -100 100 -500 -100 -100 -500 100 -100 500 100 100 hlineto
          -500 hmoveto
          100 100 100 -100 300 300 -100 -100 -100 100 -300 vlineto
          -100 300 rmoveto
          -100 -100 100 hlineto
          endchar
        </CharString>
        <CharString name="Otilde">
          764 600 rmoveto
          -100 100 -500 -100 -100 -500 100 -100 500 100 100 hlineto
          -500 hmoveto
          500 300 -500 vlineto
          -250 700 rmoveto
          100 100 100 -100 -100 -100 -100 vlineto
          300 hmoveto
          100 100 100 -100 -100 -100 -100 vlineto
          endchar
        </CharString>
        <CharString name="P">
          764 600 rmoveto
          -100 100 -600 -700 200 200 400 100 100 hlineto
          -500 hmoveto
          300 300 -300 vlineto
          endchar
        </CharString>
        <CharString name="Psi">
          364 hmoveto
          100 200 200 100 100 400 -200 -400 -100 400 -100 -400 -100 400 -200 -400 100 -100 200 hlineto
          endchar
        </CharString>
        <CharString name="Q">
          764 100 rmoveto
          -100 100 100 400 -100 100 -500 -100 -100 -500 100 -100 400 100 100 -100 100 hlineto
          -400 300 rmoveto
          -100 100 -100 -200 500 300 -300 vlineto
          endchar
        </CharString>
        <CharString name="R">
          764 100 rmoveto
          -100 100 -100 100 200 300 -100 100 -600 -700 200 200 100 -100 100 -100 300 hlineto
          -300 400 rmoveto
          -100 -200 300 300 -200 vlineto
          endchar
        </CharString>
        <CharString name="Racute">
          764 100 rmoveto
          -100 100 -100 100 200 300 -100 100 -600 -700 200 200 100 -100 100 -100 300 hlineto
          -300 400 rmoveto
          -100 -200 300 300 -200 vlineto
          -100 400 rmoveto
          100 100 100 -200 -100 -100 -100 vlineto
          endchar
        </CharString>
        <CharString name="Rcaron">
          764 100 rmoveto
          -100 100 -100 100 200 300 -100 100 -600 -700 200 200 100 -100 100 -100 300 hlineto
          -300 400 rmoveto
          -100 -200 300 300 -200 vlineto
          -131 600 rmoveto
          -100 -100 100 -200 -100 100 -100 300 100 100 100 vlineto
          endchar
        </CharString>
        <CharString name="Rcommaaccent">
          764 100 rmoveto
          -100 100 -100 100 200 300 -100 100 -600 -700 200 200 100 -100 100 -100 300 hlineto
          -300 400 rmoveto
          -100 -200 300 300 -200 vlineto
          -200 -600 rmoveto
          100 100 100 -200 -100 -100 -100 vlineto
          endchar
        </CharString>
        <CharString name="S">
          764 300 rmoveto
          -100 100 -400 200 200 -100 200 100 -100 100 -400 -100 -100 -200 100 -100 400 -200 -300 100 -200 -100 100 -100 500 100 100 hlineto
          endchar
        </CharString>
        <CharString name="Sacute">
          764 300 rmoveto
          -100 100 -400 200 200 -100 200 100 -100 100 -400 -100 -100 -200 100 -100 400 -200 -300 100 -200 -100 100 -100 500 100 100 hlineto
          -300 700 rmoveto
          100 100 100 -200 -100 -100 -100 vlineto
          endchar
        </CharString>
        <CharString name="Scaron">
          764 300 rmoveto
          -100 100 -400 200 200 -100 200 100 -100 100 -400 -100 -100 -200 100 -100 400 -200 -300 100 -200 -100 100 -100 500 100 100 hlineto
          -314 900 rmoveto
          -100 -100 100 -200 -100 100 -100 300 100 100 100 vlineto
          endchar
        </CharString>
        <CharString name="Scedilla">
          764 300 rmoveto
          -100 100 -400 200 200 -100 200 100 -100 100 -400 -100 -100 -200 100 -100 400 -200 -300 100 -200 -100 100 -100 200 -100 -100 -100 199 100 101 100 100 100 100 hlineto
          endchar
        </CharString>
        <CharString name="Scircumflex">
          764 300 rmoveto
          -100 100 -400 200 200 -100 200 100 -100 100 -400 -100 -100 -200 100 -100 400 -200 -300 100 -200 -100 100 -100 500 100 100 hlineto
          -400 700 rmoveto
          100 100 -100 200 100 -100 100 -300 -100 -100 -100 vlineto
          endchar
        </CharString>
        <CharString name="Sigma">
          64 hmoveto
          700 100 -400 100 100 100 100 100 -100 100 -100 100 400 100 -700 -100 100 -100 100 -100 100 -100 -100 -100 -100 -100 -100 hlineto
          endchar
        </CharString>
        <CharString name="T">
          714 700 rmoveto
          -600 -100 200 -600 200 600 200 hlineto
          endchar
        </CharString>
        <CharString name="Tbar">
          714 400 rmoveto
          -200 200 200 100 -600 -100 200 -200 -200 -100 200 -300 200 300 200 hlineto
          endchar
        </CharString>
        <CharString name="Tcaron">
          714 700 rmoveto
          -600 -100 200 -600 200 600 200 hlineto
          -249 400 rmoveto
          -100 -100 100 -200 -100 100 -100 300 100 100 100 vlineto
          endchar
        </CharString>
        <CharString name="Tcommaaccent">
          714 700 rmoveto
          -600 -100 200 -700 -100 -100 200 100 100 700 200 hlineto
          endchar
        </CharString>
        <CharString name="Thorn">
          764 459 rmoveto
          -100 100 -400 141 -200 -700 200 158 400 101 100 hlineto
          -500 hmoveto
          200 300 -200 vlineto
          endchar
        </CharString>
        <CharString name="U">
          764 700 rmoveto
          -200 -600 -300 600 -200 -600 100 -100 500 100 100 hlineto
          endchar
        </CharString>
        <CharString name="Uacute">
          764 700 rmoveto
          -200 -600 -300 600 -200 -600 100 -100 500 100 100 hlineto
          -260 700 rmoveto
          100 100 100 -200 -100 -100 -100 vlineto
          endchar
        </CharString>
        <CharString name="Ubreve">
          764 700 rmoveto
          -200 -600 -300 600 -200 -600 100 -100 500 100 100 hlineto
          -250 900 rmoveto
          -100 -200 100 -100 -200 400 200 vlineto
          endchar
        </CharString>
        <CharString name="Ucircumflex">
          764 700 rmoveto
          -200 -600 -300 600 -200 -600 100 -100 500 100 100 hlineto
          -400 700 rmoveto
          100 100 -100 200 100 -100 100 -300 -100 -100 -100 vlineto
          endchar
        </CharString>
        <CharString name="Udieresis">
          764 700 rmoveto
          -200 -600 -300 600 -200 -600 100 -100 500 100 100 hlineto
          -301 900 rmoveto
          -200 200 200 vlineto
          -500 -200 rmoveto
          200 200 -200 hlineto
          endchar
        </CharString>
        <CharString name="Ugrave">
          764 700 rmoveto
          -200 -600 -300 600 -200 -600 100 -100 500 100 100 hlineto
          -240 700 rmoveto
          100 -100 100 -200 -100 100 -100 vlineto
          endchar
        </CharString>
        <CharString name="Uhungarumlaut">
          764 700 rmoveto
          -200 -600 -300 600 -200 -600 100 -100 500 100 100 hlineto
          -410 700 rmoveto
          100 100 100 -200 -100 -100 -100 vlineto
          500 hmoveto
          100 100 100 -200 -100 -100 -100 vlineto
          endchar
        </CharString>
        <CharString name="Umacron">
          764 700 rmoveto
          -200 -600 -300 600 -200 -600 100 -100 500 100 100 hlineto
          -200 700 rmoveto
          100 -300 -100 vlineto
          endchar
        </CharString>
        <CharString name="Uogonek">
          664 -200 rmoveto
          100 -200 100 200 100 100 600 -200 -600 -300 600 -200 -600 100 -100 200 -200 vlineto
          endchar
        </CharString>
        <CharString name="Upsilontonos">
          164 500 rmoveto
          300 -100 -300 vlineto
          700 200 rmoveto
          -200 -300 -100 300 -200 -300 99 -100 101 -300 100 300 100 100 100 hlineto
          endchar
        </CharString>
        <CharString name="Uring">
          764 700 rmoveto
          -200 -600 -300 600 -200 -600 100 -100 500 100 100 hlineto
          -201 900 rmoveto
          -300 -300 300 hlineto
          -200 100 rmoveto
          100 100 -100 vlineto
          endchar
        </CharString>
        <CharString name="Utilde">
          764 700 rmoveto
          -200 -600 -300 600 -200 -600 100 -100 500 100 100 hlineto
          -450 700 rmoveto
          100 100 100 -100 -100 -100 -100 vlineto
          300 hmoveto
          100 100 100 -100 -100 -100 -100 vlineto
          endchar
        </CharString>
        <CharString name="V">
          764 700 rmoveto
          -200 -300 -100 -100 -100 100 -100 300 -200 -400 100 -100 100 -100 100 -100 100 100 100 100 100 100 100 hlineto
          endchar
        </CharString>
        <CharString name="W">
          764 700 rmoveto
          -200 -300 -100 100 -100 -100 -100 300 -200 -700 200 100 100 100 100 -100 100 -100 200 hlineto
          endchar
        </CharString>
        <CharString name="Wacute">
          764 700 rmoveto
          -200 -300 -100 100 -100 -100 -100 300 -200 -700 200 100 100 100 100 -100 100 -100 200 hlineto
          -260 800 rmoveto
          100 100 100 -200 -100 -100 -100 vlineto
          endchar
        </CharString>
        <CharString name="Wcircumflex">
          764 700 rmoveto
          -200 -300 -100 100 -100 -100 -100 300 -200 -700 200 100 100 100 100 -100 100 -100 200 hlineto
          -400 800 rmoveto
          100 100 -100 200 100 -100 100 -300 -100 -100 -100 vlineto
          endchar
        </CharString>
        <CharString name="Wdieresis">
          764 700 rmoveto
          -200 -300 -100 100 -100 -100 -100 300 -200 -700 200 100 100 100 100 -100 100 -100 200 hlineto
          -300 1000 rmoveto
          -200 200 200 vlineto
          -500 -200 rmoveto
          200 200 -200 hlineto
          endchar
        </CharString>
        <CharString name="Wgrave">
          764 700 rmoveto
          -200 -300 -100 100 -100 -100 -100 300 -200 -700 200 100 100 100 100 -100 100 -100 200 hlineto
          -240 800 rmoveto
          100 -100 100 -200 -100 100 -100 vlineto
          endchar
        </CharString>
        <CharString name="X">
          764 200 rmoveto
          -100 100 -100 100 100 100 100 200 -200 -100 -100 -100 -100 100 -100 100 -200 -200 100 -100 100 -100 -100 -100 -100 -200 200 100 100 100 100 -100 100 -100 200 hlineto
          endchar
        </CharString>
        <CharString name="Xi">
          564 500 rmoveto
          200 200 -700 -200 200 100 300 hlineto
          200 -400 rmoveto
          -200 -100 -300 100 -200 -200 700 hlineto
          -100 300 rmoveto
          100 -500 -100 vlineto
          endchar
        </CharString>
        <CharString name="Y">
          714 700 rmoveto
          -200 -300 -200 300 -200 -300 99 -100 101 -300 200 300 100 100 100 hlineto
          endchar
        </CharString>
        <CharString name="Yacute">
          714 700 rmoveto
          -200 -300 -200 300 -200 -300 99 -100 101 -300 200 300 100 100 100 hlineto
          -216 400 rmoveto
          100 100 100 -200 -100 -100 -100 vlineto
          endchar
        </CharString>
        <CharString name="Ycircumflex">
          714 700 rmoveto
          -200 -300 -200 300 -200 -300 99 -100 101 -300 200 300 100 100 100 hlineto
          -364 400 rmoveto
          100 100 -100 200 100 -100 100 -300 -100 -100 -100 vlineto
          endchar
        </CharString>
        <CharString name="Ydieresis">
          714 700 rmoveto
          -200 -300 -200 300 -200 -300 99 -100 101 -300 200 300 100 100 100 hlineto
          -265 600 rmoveto
          -200 200 200 vlineto
          -500 -200 rmoveto
          200 200 -200 hlineto
          endchar
        </CharString>
        <CharString name="Ygrave">
          714 700 rmoveto
          -200 -300 -200 300 -200 -300 99 -100 101 -300 200 300 100 100 100 hlineto
          -204 400 rmoveto
          100 -100 100 -200 -100 100 -100 vlineto
          endchar
        </CharString>
        <CharString name="Z">
          764 100 rmoveto
          -400 100 100 100 100 100 100 100 100 200 -700 -100 400 -100 -100 -100 -100 -100 -100 -100 -100 -200 700 hlineto
          endchar
        </CharString>
        <CharString name="Zacute">
          764 100 rmoveto
          -400 100 100 100 100 100 100 100 100 200 -700 -100 400 -100 -100 -100 -100 -100 -100 -100 -100 -200 700 hlineto
          -267 800 rmoveto
          100 100 100 -200 -100 -100 -100 vlineto
          endchar
        </CharString>
        <CharString name="Zcaron">
          764 100 rmoveto
          -400 100 100 100 100 100 100 100 100 200 -700 -100 400 -100 -100 -100 -100 -100 -100 -100 -100 -200 700 hlineto
          -316 1000 rmoveto
          -100 -100 100 -200 -100 100 -100 300 100 100 100 vlineto
          endchar
        </CharString>
        <CharString name="Zdotaccent">
          764 100 rmoveto
          -400 100 100 100 100 100 100 100 100 200 -700 -100 400 -100 -100 -100 -100 -100 -100 -100 -100 -200 700 hlineto
          -457 800 rmoveto
          200 200 -200 hlineto
          endchar
        </CharString>
        <CharString name="acute">
          464 800 rmoveto
          100 100 100 -200 -100 -100 -100 vlineto
          endchar
        </CharString>
        <CharString name="acutecomb">
          -107 -364 800 rmoveto
          100 100 100 -200 -100 -100 -100 vlineto
          endchar
        </CharString>
        <CharString name="ampersand">
          364 400 rmoveto
          -100 200 -100 -200 100 -100 100 -100 100 -100 100 -100 200 100 -200 100 -100 100 -100 hlineto
          -100 -200 rmoveto
          200 -200 -200 100 -100 300 100 vlineto
          500 vmoveto
          -100 100 -100 -100 100 -200 100 hlineto
          200 -100 rmoveto
          -100 -100 100 hlineto
          endchar
        </CharString>
        <CharString name="anoteleia">
          514 600 rmoveto
          -200 -200 200 hlineto
          endchar
        </CharString>
        <CharString name="approxequal">
          714 600 rmoveto
          -100 -100 100 hlineto
          -100 hmoveto
          -200 100 -200 -100 200 -100 200 hlineto
          -400 100 rmoveto
          -100 -100 100 hlineto
          500 -200 rmoveto
          -100 -100 100 hlineto
          -100 hmoveto
          -200 100 -200 -100 200 -100 200 hlineto
          -400 100 rmoveto
          -100 -100 100 hlineto
          endchar
        </CharString>
        <CharString name="asciicircum">
          664 500 rmoveto
          -100 100 -100 100 -100 -100 -100 -100 -100 -100 200 100 100 -100 200 hlineto
          endchar
        </CharString>
        <CharString name="asciitilde">
          714 400 rmoveto
          -100 -100 100 hlineto
          -100 hmoveto
          -200 100 -200 -100 200 -99 200 hlineto
          -400 99 rmoveto
          -100 -99 100 hlineto
          endchar
        </CharString>
        <CharString name="asterisk">
          664 600 rmoveto
          -100 -100 100 hlineto
          100 -100 rmoveto
          -200 100 -100 200 -100 -200 -100 -100 -200 -100 200 -100 100 -200 100 200 100 100 200 hlineto
          -100 -100 rmoveto
          -100 -100 100 hlineto
          -400 500 rmoveto
          -100 -100 100 hlineto
          -300 vmoveto
          -100 -100 100 hlineto
          endchar
        </CharString>
        <CharString name="at">
          264 100 rmoveto
          500 300 -100 -200 -300 300 100 100 300 -100 100 -500 -100 -100 -500 100 -100 500 100 vlineto
          -100 300 rmoveto
          -100 -100 100 vlineto
          endchar
        </CharString>
        <CharString name="backslash">
          764 100 rmoveto
          -100 100 -100 100 -100 100 -100 100 -100 100 -100 100 -100 -100 100 -100 100 -100 100 -100 100 -100 100 -100 100 -100 100 hlineto
          endchar
        </CharString>
        <CharString name="bar">
          314 -100 rmoveto
          200 900 -200 hlineto
          endchar
        </CharString>
        <CharString name="block">
          764 700 rmoveto
          -700 -700 700 hlineto
          endchar
        </CharString>
        <CharString name="braceleft">
          464 400 rmoveto
          100 300 100 100 -200 -100 -100 -300 -100 -100 100 -300 100 -100 200 100 -100 300 -100 hlineto
          endchar
        </CharString>
        <CharString name="braceright">
          364 300 rmoveto
          -100 -300 -100 -100 200 100 100 300 100 100 -100 300 -100 100 -200 -100 100 -300 100 hlineto
          endchar
        </CharString>
        <CharString name="bracketleft">
          664 hmoveto
          -200 700 200 100 -400 -900 400 hlineto
          endchar
        </CharString>
        <CharString name="bracketright">
          164 -100 rmoveto
          400 900 -400 -100 200 -700 -200 hlineto
          endchar
        </CharString>
        <CharString name="breve">
          514 1000 rmoveto
          -100 -200 100 -100 -200 400 200 vlineto
          endchar
        </CharString>
        <CharString name="brokenbar">
          514 800 rmoveto
          -200 -357 200 hlineto
          -200 -543 rmoveto
          200 356 -200 hlineto
          endchar
        </CharString>
        <CharString name="bullet">
          564 500 rmoveto
          -300 -300 300 hlineto
          endchar
        </CharString>
        <CharString name="caron">
          464 1000 rmoveto
          -100 -100 100 -200 -100 100 -100 300 100 100 100 vlineto
          endchar
        </CharString>
        <CharString name="cedilla">
          464 -200 rmoveto
          100 100 100 -200 -100 -100 -100 vlineto
          endchar
        </CharString>
        <CharString name="cent">
          526 700 rmoveto
          -100 -100 -200 -100 -100 -300 100 -100 200 -100 100 100 175 100 -175 300 175 100 -175 hlineto
          -200 -100 rmoveto
          100 -300 -100 hlineto
          endchar
        </CharString>
        <CharString name="circumflex">
          364 800 rmoveto
          100 100 -100 200 100 -100 100 -300 -100 -100 -100 vlineto
          endchar
        </CharString>
        <CharString name="colon">
          514 700 rmoveto
          -200 -200 200 hlineto
          -100 vmoveto
          -200 -200 200 hlineto
          endchar
        </CharString>
        <CharString name="comma">
          514 400 rmoveto
          -200 -200 100 -100 100 hlineto
          -100 hmoveto
          -100 -100 100 hlineto
          endchar
        </CharString>
        <CharString name="copyright">
          764 600 rmoveto
          -100 100 -500 -100 500 -500 100 hlineto
          -200 100 rmoveto
          100 -200 100 200 100 -300 -300 vlineto
          -100 -100 rmoveto
          500 -100 -500 vlineto
          100 -100 rmoveto
          500 100 -500 hlineto
          endchar
        </CharString>
        <CharString name="currency">
          164 102 rmoveto
          100 98 300 -98 100 198 -100 100 100 200 -100 -100 -300 100 -100 -200 100 -100 -100 hlineto
          200 hmoveto
          100 100 -100 vlineto
          endchar
        </CharString>
        <CharString name="dagger">
          464 500 rmoveto
          200 100 -200 100 -100 -100 -200 -100 200 -500 100 hlineto
          endchar
        </CharString>
        <CharString name="daggerdbl">
          664 200 rmoveto
          -200 300 200 100 -200 100 -100 -100 -200 -100 200 -300 -200 -100 200 -100 100 100 200 hlineto
          endchar
        </CharString>
        <CharString name="degree">
          263 500 rmoveto
          -100 300 100 100 200 -100 100 -300 -100 -99 -200 vlineto
          299 200 rmoveto
          -200 -100 200 vlineto
          endchar
        </CharString>
        <CharString name="dieresis">
          464 1000 rmoveto
          -200 200 200 vlineto
          -500 -200 rmoveto
          200 200 -200 hlineto
          endchar
        </CharString>
        <CharString name="dieresistonos">
          64 500 rmoveto
          200 200 -200 hlineto
          400 -200 rmoveto
          300 -100 -300 vlineto
          200 hmoveto
          200 200 -200 hlineto
          endchar
        </CharString>
        <CharString name="divide">
          714 400 rmoveto
          -600 -100 600 hlineto
          -200 300 rmoveto
          -200 -100 200 hlineto
          -400 vmoveto
          100 -200 -100 vlineto
          endchar
        </CharString>
        <CharString name="dollar">
          764 300 rmoveto
          -100 100 -300 100 300 100 -200 100 -100 -100 -200 -100 -100 -100 100 -100 300 -100 -300 -100 200 -100 100 100 200 100 100 hlineto
          endchar
        </CharString>
        <CharString name="dong">
          264 700 rmoveto
          200 -100 -300 -100 -100 -200 100 -100 500 500 100 100 -100 100 -200 -100 -200 hlineto
          -200 -800 rmoveto
          700 100 -700 hlineto
          200 200 rmoveto
          200 200 -200 vlineto
          endchar
        </CharString>
        <CharString name="dotaccent">
          314 800 rmoveto
          200 200 -200 hlineto
          endchar
        </CharString>
        <CharString name="dotbelowcomb">
          -107 -514 -200 rmoveto
          200 200 -200 hlineto
          endchar
        </CharString>
        <CharString name="eight">
          164 300 rmoveto
          -100 -200 100 -100 500 100 100 200 -200 100 -200 100 -100 100 300 -200 100 200 -100 100 -400 -100 -100 -200 100 hlineto
          -100 vmoveto
          200 -100 200 -100 -400 hlineto
          endchar
        </CharString>
        <CharString name="eightinferior">
          564 100 rmoveto
          100 100 -100 100 -300 100 -100 -100 100 -100 300 hlineto
          100 vmoveto
          100 100 -100 100 -300 -100 300 hlineto
          -300 -400 rmoveto
          300 100 -300 100 -100 -100 100 hlineto
          endchar
        </CharString>
        <CharString name="eightsuperior">
          564 400 rmoveto
          100 100 -100 100 -300 100 -100 -100 100 -100 300 hlineto
          100 vmoveto
          100 100 -100 100 -300 -100 300 hlineto
          -300 -400 rmoveto
          300 100 -300 100 -100 -100 100 hlineto
          endchar
        </CharString>
        <CharString name="ellipsis">
          214 200 rmoveto
          -150 -200 150 hlineto
          275 200 rmoveto
          -150 -200 150 hlineto
          275 200 rmoveto
          -150 -200 150 hlineto
          endchar
        </CharString>
        <CharString name="emdash">
          828 400 rmoveto
          -828 -100 828 hlineto
          endchar
        </CharString>
        <CharString name="endash">
          764 400 rmoveto
          -700 -100 700 hlineto
          endchar
        </CharString>
        <CharString name="equal">
          714 500 rmoveto
          -600 -100 600 hlineto
          -100 vmoveto
          -600 -100 600 hlineto
          endchar
        </CharString>
        <CharString name="exclam">
          664 700 rmoveto
          -300 -200 -100 -300 100 100 100 100 100 100 100 hlineto
          -400 -400 rmoveto
          -100 -100 100 hlineto
          endchar
        </CharString>
        <CharString name="exclamdown">
          164 hmoveto
          300 200 100 300 -100 -100 -100 -100 -100 -100 -100 hlineto
          400 400 rmoveto
          100 100 -100 hlineto
          endchar
        </CharString>
        <CharString name="five">
          764 400 rmoveto
          -100 100 -400 100 400 100 -600 -300 500 -300 -300 100 -200 -100 100 -100 500 100 100 hlineto
          endchar
        </CharString>
        <CharString name="fiveeighths">
          664 hmoveto
          100 100 -100 100 -100 100 -100 100 -100 100 -100 100 100 100 -300 -200 200 -100 100 -100 100 -100 100 -100 100 hlineto
          -300 200 rmoveto
          -100 100 -200 -100 200 -100 100 hlineto
          300 hmoveto
          100 100 -100 100 -100 100 -100 -100 100 -100 100 hlineto
          -100 -400 rmoveto
          100 100 -100 100 -100 -100 100 hlineto
          100 600 rmoveto
          -100 -100 100 hlineto
          -500 -400 rmoveto
          -100 -100 100 hlineto
          600 700 rmoveto
          -100 -100 100 hlineto
          -500 -400 rmoveto
          -100 -100 100 hlineto
          endchar
        </CharString>
        <CharString name="fiveinferior">
          564 100 rmoveto
          100 100 -100 100 -300 100 400 100 -500 -300 400 hlineto
          -400 -200 rmoveto
          400 100 -400 hlineto
          endchar
        </CharString>
        <CharString name="fivesuperior">
          564 400 rmoveto
          100 100 -100 100 -300 100 400 100 -500 -300 400 hlineto
          -400 -200 rmoveto
          400 100 -400 hlineto
          endchar
        </CharString>
        <CharString name="florin">
          613 400 rmoveto
          -99 300 100 100 -200 -100 -100 -300 -100 -100 100 -400 -100 -100 200 100 100 400 99 hlineto
          endchar
        </CharString>
        <CharString name="four">
          764 300 rmoveto
          -100 400 -300 -100 -100 -100 -101 -100 -99 -200 400 -200 200 200 100 hlineto
          -500 100 rmoveto
          100 100 100 100 -200 vlineto
          endchar
        </CharString>
        <CharString name="fourinferior">
          564 100 rmoveto
          100 100 -100 300 -100 -100 -100 -100 100 -100 -100 100 -100 -100 -100 -100 300 -100 100 hlineto
          endchar
        </CharString>
        <CharString name="foursuperior">
          564 400 rmoveto
          100 100 -100 300 -100 -100 -100 -100 100 -100 -100 100 -100 -100 -100 -100 300 -100 100 hlineto
          endchar
        </CharString>
        <CharString name="fraction">
          -107 350 700 rmoveto
          -100 -100 100 hlineto
          -100 hmoveto
          -100 -100 100 hlineto
          -100 hmoveto
          -100 -100 100 hlineto
          -100 hmoveto
          -100 -100 100 hlineto
          -100 hmoveto
          -100 -100 100 hlineto
          -100 hmoveto
          -100 -100 100 hlineto
          -100 hmoveto
          -100 -100 100 hlineto
          endchar
        </CharString>
        <CharString name="grave">
          564 800 rmoveto
          100 -100 100 -200 -100 100 -100 vlineto
          endchar
        </CharString>
        <CharString name="gravecomb">
          -107 -264 800 rmoveto
          100 -100 100 -200 -100 100 -100 vlineto
          endchar
        </CharString>
        <CharString name="greater">
          664 400 rmoveto
          -101 100 -99 100 -100 100 -200 -100 100 -100 100 -100 100 -100 -100 -100 -100 -100 -100 -100 200 100 100 100 99 100 101 hlineto
          endchar
        </CharString>
        <CharString name="greaterequal">
          164 -100 rmoveto
          500 100 -500 hlineto
          100 vmoveto
          200 100 100 100 100 100 99 100 -99 100 -100 100 -100 100 -200 -100 100 -100 100 -100 100 -100 -100 -100 -100 -100 -100 hlineto
          endchar
        </CharString>
        <CharString name="guillemotleft">
          264 300 rmoveto
          100 -100 100 -100 100 -100 200 100 -100 100 -100 100 100 100 100 100 -200 -100 -100 100 -200 -100 -100 -100 -100 -100 100 -100 100 -100 200 100 -100 100 -100 hlineto
          100 200 rmoveto
          100 -100 -100 hlineto
          endchar
        </CharString>
        <CharString name="guillemotright">
          64 100 rmoveto
          -100 200 100 100 -100 200 100 100 100 100 100 -100 100 -100 100 -200 -100 100 -100 100 -100 -100 100 -100 100 -100 100 -200 -100 100 -100 100 -100 -100 -100 vlineto
          200 100 rmoveto
          100 -100 -100 hlineto
          endchar
        </CharString>
        <CharString name="guilsinglleft">
          364 300 rmoveto
          100 100 100 100 -200 -100 -100 -100 -100 -100 100 -100 100 -100 200 100 -100 100 -100 hlineto
          endchar
        </CharString>
        <CharString name="guilsinglright">
          464 500 rmoveto
          -200 -100 100 -100 100 -100 -100 -100 -100 -100 200 100 100 100 100 100 -100 100 -100 hlineto
          endchar
        </CharString>
        <CharString name="heart">
          764 600 rmoveto
          -100 100 -200 -100 -100 100 -200 -100 -100 -200 100 -100 100 -100 100 -100 100 100 100 100 100 100 100 hlineto
          endchar
        </CharString>
        <CharString name="hookabovecomb">
          -107 -564 900 rmoveto
          200 -100 100 200 -300 hlineto
          100 -300 rmoveto
          100 100 -100 hlineto
          endchar
        </CharString>
        <CharString name="hungarumlaut">
          314 800 rmoveto
          100 100 100 -200 -100 -100 -100 vlineto
          500 hmoveto
          100 100 100 -200 -100 -100 -100 vlineto
          endchar
        </CharString>
        <CharString name="hyphen">
          664 400 rmoveto
          -500 -100 500 hlineto
          endchar
        </CharString>
        <CharString name="infinity">
          464 200 rmoveto
          300 -100 100 -200 -100 200 -300 100 -100 200 100 vlineto
          -500 hmoveto
          300 -100 -300 100 -100 200 100 vlineto
          400 300 rmoveto
          -100 100 -200 -100 200 -300 100 hlineto
          endchar
        </CharString>
        <CharString name="integral">
          214 -200 rmoveto
          200 100 100 800 100 100 -200 -100 -100 -800 -100 hlineto
          endchar
        </CharString>
        <CharString name="iotadieresistonos">
          164 500 rmoveto
          300 -100 -300 vlineto
          700 200 rmoveto
          -500 -100 100 -500 -200 -100 600 100 -200 500 200 hlineto
          -200 400 rmoveto
          -200 200 200 vlineto
          -500 -200 rmoveto
          200 200 -200 hlineto
          endchar
        </CharString>
        <CharString name="less">
          664 100 rmoveto
          -100 100 -100 100 -100 100 100 100 100 100 100 100 -200 -100 -100 -100 -100 -100 -100 -100 100 -100 100 -100 100 -100 200 hlineto
          endchar
        </CharString>
        <CharString name="lessequal">
          664 hmoveto
          -500 -100 500 hlineto
          300 vmoveto
          -100 100 -100 101 -100 99 100 100 100 100 100 100 -200 -100 -100 -100 -100 -100 -100 -99 100 -101 100 -100 100 -100 200 hlineto
          endchar
        </CharString>
        <CharString name="litre">
          664 600 rmoveto
          -100 100 -300 -100 -100 -500 100 -100 300 100 -200 100 100 100 -100 300 200 -200 100 hlineto
          -200 -100 rmoveto
          100 100 -100 hlineto
          endchar
        </CharString>
        <CharString name="logicalnot">
          714 400 rmoveto
          -600 -100 400 -300 200 hlineto
          endchar
        </CharString>
        <CharString name="lozenge">
          664 500 rmoveto
          -100 100 -100 100 -100 -100 -100 -100 -100 -200 100 -100 100 -101 100 101 100 100 100 hlineto
          -300 200 rmoveto
          100 -200 -100 hlineto
          endchar
        </CharString>
        <CharString name="macron">
          564 800 rmoveto
          100 -300 -100 vlineto
          endchar
        </CharString>
        <CharString name="minus">
          714 400 rmoveto
          -600 -100 600 hlineto
          endchar
        </CharString>
        <CharString name="multiply">
          164 100 rmoveto
          100 100 100 100 100 -100 100 -100 100 200 -100 100 100 200 -100 -100 -100 -100 -100 100 -100 100 -100 -200 100 -100 -100 hlineto
          endchar
        </CharString>
        <CharString name="nbspace">
          endchar
        </CharString>
        <CharString name="nine">
          764 600 rmoveto
          -100 100 -500 -100 -100 -200 100 -100 400 -100 -100 -100 -300 -100 400 100 100 100 100 hlineto
          -500 200 rmoveto
          200 300 -200 vlineto
          endchar
        </CharString>
        <CharString name="nineinferior">
          164 300 rmoveto
          100 -100 300 -100 100 300 -100 100 -300 -100 300 -100 -300 100 -100 hlineto
          100 -400 rmoveto
          300 100 -300 hlineto
          endchar
        </CharString>
        <CharString name="ninesuperior">
          164 600 rmoveto
          100 -100 300 -100 100 300 -100 100 -300 -100 300 -100 -300 100 -100 hlineto
          100 -400 rmoveto
          300 100 -300 hlineto
          endchar
        </CharString>
        <CharString name="notequal">
          664 600 rmoveto
          -100 -100 -500 -100 300 -100 -300 -100 100 -100 100 100 500 100 -300 100 300 100 -100 hlineto
          100 200 rmoveto
          -100 -100 100 hlineto
          -600 -500 rmoveto
          -100 -100 100 hlineto
          endchar
        </CharString>
        <CharString name="numbersign">
          664 300 rmoveto
          -100 100 100 100 -100 100 -100 -100 -100 100 -100 -100 -100 -100 100 -100 -100 -100 100 -100 100 100 100 -100 100 100 100 hlineto
          -300 100 rmoveto
          100 100 -100 vlineto
          endchar
        </CharString>
        <CharString name="ogonek">
          564 -200 rmoveto
          100 -200 100 -100 -200 vlineto
          endchar
        </CharString>
        <CharString name="old.equal">
          764 700 rmoveto
          -700 -200 700 hlineto
          -100 vmoveto
          -700 -199 700 hlineto
          endchar
        </CharString>
        <CharString name="one">
          714 100 rmoveto
          -200 600 -200 -100 -101 -100 101 -400 -200 -100 600 hlineto
          endchar
        </CharString>
        <CharString name="oneeighth">
          464 400 rmoveto
          -100 100 -100 300 -100 -100 -100 -100 100 -100 -100 -100 300 -100 100 -100 100 -100 100 -100 100 100 -100 100 -100 100 -100 hlineto
          100 200 rmoveto
          -100 -100 100 -100 100 -100 100 100 -100 100 -100 hlineto
          -500 vmoveto
          100 100 -100 100 -100 -100 100 hlineto
          -200 300 rmoveto
          -100 -100 100 hlineto
          300 400 rmoveto
          -100 -100 100 hlineto
          100 200 rmoveto
          -100 -100 100 hlineto
          -500 -400 rmoveto
          -100 -100 100 hlineto
          -100 hmoveto
          -100 -100 100 hlineto
          endchar
        </CharString>
        <CharString name="onehalf">
          664 100 rmoveto
          100 100 -100 100 -200 100 -100 100 -100 300 -100 -100 -100 -100 100 -100 -100 -100 300 -100 100 -100 200 hlineto
          -200 -300 rmoveto
          300 100 -100 100 -100 -100 -100 hlineto
          -300 100 rmoveto
          -100 -100 100 hlineto
          100 200 rmoveto
          -100 -100 100 hlineto
          100 200 rmoveto
          -100 -100 100 hlineto
          400 500 rmoveto
          -100 -100 100 hlineto
          -100 hmoveto
          -100 -100 100 hlineto
          -100 hmoveto
          -100 -100 100 hlineto
          endchar
        </CharString>
        <CharString name="oneinferior">
          164 hmoveto
          500 100 -200 400 -100 -100 -200 -100 200 -200 -200 hlineto
          endchar
        </CharString>
        <CharString name="onequarter">
          64 400 rmoveto
          300 100 -100 300 -100 -100 -100 -100 100 -100 -100 hlineto
          700 200 rmoveto
          -100 -100 100 hlineto
          -100 hmoveto
          -100 -100 100 hlineto
          -100 hmoveto
          -100 -100 100 hlineto
          -100 hmoveto
          -100 -100 100 hlineto
          -100 hmoveto
          -100 -100 100 hlineto
          -100 hmoveto
          -100 -100 100 hlineto
          -100 hmoveto
          -100 -100 100 hlineto
          400 200 rmoveto
          100 -100 -100 100 -100 -200 200 -100 100 500 -100 -100 -100 hlineto
          endchar
        </CharString>
        <CharString name="onesuperior">
          164 300 rmoveto
          500 100 -200 400 -100 -100 -200 -100 200 -200 -200 hlineto
          endchar
        </CharString>
        <CharString name="onethird">
          464 200 rmoveto
          100 -100 100 -100 100 100 -100 100 100 100 -300 100 -100 100 -100 300 -100 -100 -100 -100 100 -100 -100 -100 300 -100 100 hlineto
          -400 vmoveto
          200 100 -200 hlineto
          200 600 rmoveto
          -100 -100 100 hlineto
          -500 -400 rmoveto
          -100 -100 100 hlineto
          100 200 rmoveto
          -100 -100 100 hlineto
          100 200 rmoveto
          -100 -100 100 hlineto
          400 500 rmoveto
          -100 -100 100 hlineto
          -200 -100 rmoveto
          -100 -100 100 hlineto
          endchar
        </CharString>
        <CharString name="ordfeminine">
          314 500 rmoveto
          100 -100 -300 100 100 200 -100 100 300 -100 100 -200 -100 200 -100 vlineto
          endchar
        </CharString>
        <CharString name="ordmasculine">
          614 600 rmoveto
          -100 100 -200 -100 200 -200 100 hlineto
          -300 hmoveto
          -100 200 100 vlineto
          -200 200 rmoveto
          -100 -200 100 hlineto
          endchar
        </CharString>
        <CharString name="paragraph">
          164 700 rmoveto
          -100 -100 -200 100 -100 200 -499 100 799 200 -799 100 899 vlineto
          endchar
        </CharString>
        <CharString name="parenleft">
          664 hmoveto
          -100 700 100 100 -200 -100 -100 -700 100 -100 200 hlineto
          endchar
        </CharString>
        <CharString name="parenright">
          164 -100 rmoveto
          200 100 100 700 -100 100 -200 -100 100 -700 -100 hlineto
          endchar
        </CharString>
        <CharString name="partialdiff">
          264 100 rmoveto
          200 300 -200 vlineto
          -500 hmoveto
          100 -100 500 100 100 400 -100 100 -100 100 -400 -100 300 -100 100 -100 -400 -100 -100 hlineto
          endchar
        </CharString>
        <CharString name="percent">
          714 700 rmoveto
          -100 -100 100 hlineto
          -100 hmoveto
          -100 -100 100 hlineto
          -100 hmoveto
          -100 -100 100 hlineto
          -200 300 rmoveto
          -200 -200 200 hlineto
          400 -200 rmoveto
          -200 -200 200 hlineto
          -300 300 rmoveto
          -100 -100 100 hlineto
          -100 hmoveto
          -100 -100 100 hlineto
          -100 hmoveto
          -100 -100 100 hlineto
          endchar
        </CharString>
        <CharString name="period">
          514 200 rmoveto
          -200 -200 200 hlineto
          endchar
        </CharString>
        <CharString name="periodcentered">
          514 448 rmoveto
          -200 -200 200 hlineto
          endchar
        </CharString>
        <CharString name="perthousand">
          64 700 rmoveto
          -200 200 200 vlineto
          -100 -400 rmoveto
          -100 -100 100 hlineto
          300 400 rmoveto
          -100 -100 100 hlineto
          -100 hmoveto
          -100 -100 100 hlineto
          -100 hmoveto
          -100 -100 100 hlineto
          300 400 rmoveto
          -100 -100 100 hlineto
          -300 vmoveto
          -200 200 200 vlineto
          -500 hmoveto
          -200 200 200 vlineto
          endchar
        </CharString>
        <CharString name="pi">
          664 400 rmoveto
          100 100 -700 -100 100 -400 200 400 100 -300 100 -100 200 100 -100 hlineto
          endchar
        </CharString>
        <CharString name="plus">
          713 400 rmoveto
          -199 200 -200 -200 -200 -100 200 -200 200 200 199 hlineto
          endchar
        </CharString>
        <CharString name="plusminus">
          714 400 rmoveto
          -200 200 -200 -200 -200 -100 200 -198 200 198 200 hlineto
          -300 vmoveto
          -600 -100 600 hlineto
          endchar
        </CharString>
        <CharString name="product">
          764 700 rmoveto
          -700 -900 200 800 300 -800 200 hlineto
          endchar
        </CharString>
        <CharString name="question">
          764 600 rmoveto
          -100 100 -500 -100 -100 -100 200 100 300 -100 -100 -100 -100 -200 100 100 100 100 200 hlineto
          -300 -300 rmoveto
          -100 -100 100 hlineto
          endchar
        </CharString>
        <CharString name="questiondown">
          64 100 rmoveto
          100 -100 500 100 100 100 -200 -100 -300 100 100 100 100 200 -100 -100 -100 -100 -200 hlineto
          300 300 rmoveto
          100 100 -100 hlineto
          endchar
        </CharString>
        <CharString name="quotedbl">
          664 700 rmoveto
          -200 -200 100 -100 100 hlineto
          -100 hmoveto
          -100 -100 100 hlineto
          -200 400 rmoveto
          -200 -200 100 -100 100 hlineto
          -100 hmoveto
          -100 -100 100 hlineto
          endchar
        </CharString>
        <CharString name="quotedblbase">
          664 200 rmoveto
          -200 -200 100 -100 100 hlineto
          -100 hmoveto
          -100 -100 100 hlineto
          -200 400 rmoveto
          -200 -200 100 -100 100 hlineto
          -100 hmoveto
          -100 -100 100 hlineto
          endchar
        </CharString>
        <CharString name="quotedblleft">
          164 300 rmoveto
          200 200 -100 100 -100 hlineto
          100 hmoveto
          100 100 -100 hlineto
          200 -400 rmoveto
          200 200 -100 100 -100 hlineto
          100 hmoveto
          100 100 -100 hlineto
          endchar
        </CharString>
        <CharString name="quotedblright">
          664 700 rmoveto
          -200 -200 100 -100 100 hlineto
          -100 hmoveto
          -100 -100 100 hlineto
          -200 400 rmoveto
          -200 -200 100 -100 100 hlineto
          -100 hmoveto
          -100 -100 100 hlineto
          endchar
        </CharString>
        <CharString name="quoteleft">
          314 300 rmoveto
          200 200 -100 100 -100 hlineto
          100 hmoveto
          100 100 -100 hlineto
          endchar
        </CharString>
        <CharString name="quoteright">
          514 700 rmoveto
          -200 -200 100 -100 100 hlineto
          -100 hmoveto
          -100 -100 100 hlineto
          endchar
        </CharString>
        <CharString name="quotesinglbase">
          514 200 rmoveto
          -200 -200 100 -100 100 hlineto
          -100 hmoveto
          -100 -100 100 hlineto
          endchar
        </CharString>
        <CharString name="quotesingle">
          514 700 rmoveto
          -200 -200 100 -100 100 hlineto
          -100 hmoveto
          -100 -100 100 hlineto
          endchar
        </CharString>
        <CharString name="radical">
          264 300 rmoveto
          -200 -100 100 -100 100 -100 100 100 -100 hlineto
          400 500 rmoveto
          100 100 -200 -200 100 hlineto
          -300 -400 rmoveto
          100 200 -100 hlineto
          200 200 rmoveto
          -100 -200 100 hlineto
          endchar
        </CharString>
        <CharString name="registered">
          764 600 rmoveto
          -100 100 -500 -100 500 -500 100 hlineto
          -600 hmoveto
          500 -100 -500 vlineto
          100 -100 rmoveto
          500 100 -500 hlineto
          162 284 rmoveto
          77 176 -77 77 153 -330 -383 77 152 176 -152 77 152 -77 78 vlineto
          endchar
        </CharString>
        <CharString name="ring">
          564 1000 rmoveto
          -300 -300 300 hlineto
          -200 100 rmoveto
          100 100 -100 vlineto
          endchar
        </CharString>
        <CharString name="section">
          764 100 rmoveto
          -100 100 100 100 -100 100 -400 200 300 -100 200 100 -100 100 -500 -100 -100 -200 100 -100 -100 -100 100 -100 400 -200 -300 100 -200 -100 100 -100 500 100 100 hlineto
          -500 300 rmoveto
          100 300 -100 vlineto
          endchar
        </CharString>
        <CharString name="semicolon">
          514 700 rmoveto
          -200 -200 200 hlineto
          -100 vmoveto
          -200 -200 100 -100 100 hlineto
          -100 hmoveto
          -100 -100 100 hlineto
          endchar
        </CharString>
        <CharString name="seven">
          764 700 rmoveto
          -700 -200 200 100 300 -100 -100 -100 -100 -100 -100 -300 200 300 100 100 99 100 101 hlineto
          endchar
        </CharString>
        <CharString name="seveneighths">
          64 600 rmoveto
          200 -100 100 200 -300 hlineto
          600 -700 rmoveto
          100 100 -100 100 -100 100 -100 100 -100 -100 100 -100 100 -100 100 hlineto
          100 vmoveto
          100 100 -100 100 -100 100 -100 -100 100 -100 100 hlineto
          -100 -400 rmoveto
          100 100 -100 100 -100 -100 100 hlineto
          -200 300 rmoveto
          -100 -100 100 hlineto
          300 400 rmoveto
          -100 -100 100 hlineto
          -500 -100 rmoveto
          100 100 -100 hlineto
          -100 -200 rmoveto
          100 100 -100 hlineto
          700 300 rmoveto
          -100 -100 100 hlineto
          -600 -500 rmoveto
          -100 -100 100 hlineto
          100 200 rmoveto
          -100 -100 100 hlineto
          endchar
        </CharString>
        <CharString name="seveninferior">
          164 400 rmoveto
          400 -100 100 200 -500 hlineto
          200 -500 rmoveto
          100 200 -100 hlineto
          100 hmoveto
          100 100 -100 hlineto
          endchar
        </CharString>
        <CharString name="sevensuperior">
          164 700 rmoveto
          400 -100 100 200 -500 hlineto
          200 -500 rmoveto
          100 200 -100 hlineto
          100 hmoveto
          100 100 -100 hlineto
          endchar
        </CharString>
        <CharString name="six">
          764 300 rmoveto
          -100 100 -400 100 100 100 300 100 -400 -100 -100 -100 -100 -400 100 -100 500 100 100 hlineto
          -500 hmoveto
          200 300 -200 vlineto
          endchar
        </CharString>
        <CharString name="sixinferior">
          264 200 rmoveto
          300 -100 100 100 -100 100 -300 100 -100 -300 100 -100 300 100 -300 hlineto
          300 vmoveto
          300 100 -300 hlineto
          endchar
        </CharString>
        <CharString name="sixsuperior">
          264 500 rmoveto
          300 -100 100 100 -100 100 -300 100 -100 -300 100 -100 300 100 -300 hlineto
          300 vmoveto
          300 100 -300 hlineto
          endchar
        </CharString>
        <CharString name="slash">
          764 700 rmoveto
          -100 -100 100 hlineto
          -100 hmoveto
          -100 -100 100 hlineto
          -100 hmoveto
          -100 -100 100 hlineto
          -100 hmoveto
          -100 -100 100 hlineto
          -100 hmoveto
          -100 -100 100 hlineto
          -100 hmoveto
          -100 -100 100 hlineto
          -100 hmoveto
          -100 -100 100 hlineto
          endchar
        </CharString>
        <CharString name="space">
          endchar
        </CharString>
        <CharString name="sterling">
          64 100 rmoveto
          -100 700 100 -400 200 200 100 -200 200 200 -99 200 99 -100 100 -400 -100 -100 -200 -100 -100 100 -200 vlineto
          endchar
        </CharString>
        <CharString name="summation">
          764 700 rmoveto
          -700 -200 100 -100 100 -100 100 -100 -100 -100 -100 -100 -100 -200 700 100 -400 100 100 100 100 200 -100 100 -100 100 -100 100 500 hlineto
          endchar
        </CharString>
        <CharString name="three">
          764 300 rmoveto
          -100 100 -100 100 100 100 100 100 -600 -100 300 -100 -100 -100 -101 -100 301 -200 -301 100 -199 -100 100 -100 499 100 101 hlineto
          endchar
        </CharString>
        <CharString name="threeeighths">
          64 600 rmoveto
          100 -100 100 -100 100 -100 100 -100 100 -100 100 -100 100 100 -100 100 -100 100 -100 100 -100 100 -100 100 100 100 -300 hlineto
          300 -400 rmoveto
          -100 100 -200 -100 200 -100 100 hlineto
          300 hmoveto
          100 100 -100 100 -100 100 -100 -100 100 -100 100 hlineto
          -100 -400 rmoveto
          100 100 -100 100 -100 -100 100 hlineto
          100 600 rmoveto
          -100 -100 100 hlineto
          -500 -400 rmoveto
          -100 -100 100 hlineto
          600 700 rmoveto
          -100 -100 100 hlineto
          -500 -400 rmoveto
          -100 -100 100 hlineto
          endchar
        </CharString>
        <CharString name="threeinferior">
          164 400 rmoveto
          400 -100 100 200 -500 hlineto
          -500 vmoveto
          400 100 -400 hlineto
          400 hmoveto
          100 100 -100 100 -200 -100 200 hlineto
          endchar
        </CharString>
        <CharString name="threequarters">
          64 700 rmoveto
          200 -100 100 200 -300 hlineto
          -500 vmoveto
          200 100 -200 hlineto
          200 hmoveto
          100 100 -100 100 -100 -100 100 hlineto
          500 200 rmoveto
          -100 -100 100 hlineto
          -100 hmoveto
          -100 -100 100 hlineto
          -100 hmoveto
          -100 -100 100 hlineto
          -100 hmoveto
          -100 -100 100 hlineto
          -100 hmoveto
          -100 -100 100 hlineto
          -100 hmoveto
          -100 -100 100 hlineto
          -100 hmoveto
          -100 -100 100 hlineto
          400 200 rmoveto
          100 -100 -100 100 -100 -200 200 -100 100 500 -100 -100 -100 hlineto
          endchar
        </CharString>
        <CharString name="threesuperior">
          164 700 rmoveto
          400 -100 100 200 -500 hlineto
          -500 vmoveto
          400 100 -400 hlineto
          400 hmoveto
          100 100 -100 100 -200 -100 200 hlineto
          endchar
        </CharString>
        <CharString name="tilde">
          314 800 rmoveto
          100 100 100 -100 -100 -100 -100 vlineto
          300 hmoveto
          100 100 100 -100 -100 -100 -100 vlineto
          endchar
        </CharString>
        <CharString name="tildecomb">
          -107 -514 800 rmoveto
          100 100 100 -100 -100 -100 -100 vlineto
          300 hmoveto
          100 100 100 -100 -100 -100 -100 vlineto
          endchar
        </CharString>
        <CharString name="tonos">
          464 500 rmoveto
          300 -100 -300 vlineto
          endchar
        </CharString>
        <CharString name="trademark">
          564 500 rmoveto
          100 -100 100 300 -300 -300 100 hlineto
          -500 200 rmoveto
          100 -200 100 200 100 100 -300 hlineto
          endchar
        </CharString>
        <CharString name="two">
          764 100 rmoveto
          -400 100 200 100 100 100 100 200 -100 100 -500 -100 -100 -100 200 100 300 -100 -100 -100 -200 -100 -100 -100 -100 -200 700 hlineto
          endchar
        </CharString>
        <CharString name="twoinferior">
          164 hmoveto
          500 100 -400 100 -100 hlineto
          400 100 rmoveto
          100 100 -100 100 -400 -100 400 hlineto
          -300 -200 rmoveto
          300 100 -300 hlineto
          endchar
        </CharString>
        <CharString name="twosuperior">
          164 300 rmoveto
          500 100 -400 100 -100 hlineto
          400 100 rmoveto
          100 100 -100 100 -400 -100 400 hlineto
          -300 -200 rmoveto
          300 100 -300 hlineto
          endchar
        </CharString>
        <CharString name="twothirds">
          464 200 rmoveto
          100 -100 100 -100 100 100 -100 100 100 100 -300 100 -100 100 -100 100 -100 -100 -100 -100 300 -100 100 hlineto
          -200 300 rmoveto
          100 100 -100 100 -200 -100 200 hlineto
          200 -800 rmoveto
          200 100 -200 hlineto
          -200 200 rmoveto
          -100 -100 100 hlineto
          100 200 rmoveto
          -100 -100 100 hlineto
          200 300 rmoveto
          -100 -100 100 hlineto
          100 200 rmoveto
          -100 -100 100 hlineto
          100 200 rmoveto
          -100 -100 100 hlineto
          -600 -500 rmoveto
          -100 -100 100 hlineto
          endchar
        </CharString>
        <CharString name="underscore">
          764 hmoveto
          -700 -100 700 hlineto
          endchar
        </CharString>
        <CharString name="uni0017">
          endchar
        </CharString>
        <CharString name="uni00B5">
          264 100 rmoveto
          400 -200 -700 200 200 200 100 vlineto
          200 400 rmoveto
          -200 -400 100 -100 200 100 -100 hlineto
          endchar
        </CharString>
        <CharString name="uni0108">
          764 200 rmoveto
          -200 -100 -200 100 -100 300 100 100 200 -100 200 100 -100 100 -400 -100 -100 -100 -100 -300 100 -100 100 -100 400 100 100 hlineto
          -344 700 rmoveto
          100 100 -100 200 100 -100 100 -300 -100 -100 -100 vlineto
          endchar
        </CharString>
        <CharString name="uni011C">
          764 400 rmoveto
          -300 -100 100 -200 -200 100 -100 300 100 100 400 100 -500 -100 -100 -100 -100 -300 100 -98 100 -102 500 hlineto
          -400 800 rmoveto
          100 100 -100 200 100 -100 100 -300 -100 -100 -100 vlineto
          endchar
        </CharString>
        <CharString name="uni0124">
          764 700 rmoveto
          -200 -300 -300 300 -200 -700 200 300 300 -300 200 hlineto
          -400 800 rmoveto
          100 100 -100 200 100 -100 100 -300 -100 -100 -100 vlineto
          endchar
        </CharString>
        <CharString name="uni0134">
          764 700 rmoveto
          -200 -600 -300 100 -200 -100 100 -100 500 100 100 hlineto
          -300 700 rmoveto
          100 100 -100 200 100 -100 100 -300 -100 -100 -100 vlineto
          endchar
        </CharString>
        <CharString name="uni0181">
          164 600 rmoveto
          100 -600 400 100 100 200 -100 100 100 200 -100 100 -500 hlineto
          -100 -300 rmoveto
          100 200 -100 hlineto
          400 -200 rmoveto
          200 100 -200 vlineto
          -100 -300 rmoveto
          200 100 -200 vlineto
          endchar
        </CharString>
        <CharString name="uni0187">
          365 600 rmoveto
          299 100 100 100 -200 -100 -300 -100 -100 -100 -100 -300 100 -100 100 -100 400 100 100 100 -200 -100 -200 100 -100 300 101 hlineto
          endchar
        </CharString>
        <CharString name="uni018A">
          564 600 rmoveto
          -100 100 -300 100 300 -100 100 -100 100 -400 -100 100 -600 300 100 -100 500 vlineto
          -400 -200 rmoveto
          100 200 -100 hlineto
          600 -500 rmoveto
          100 -100 -100 vlineto
          endchar
        </CharString>
        <CharString name="uni018E">
          64 600 rmoveto
          500 -200 -400 -100 400 -200 -500 -100 700 700 -700 hlineto
          endchar
        </CharString>
        <CharString name="uni018F">
          64 500 rmoveto
          200 100 300 -200 -500 -300 100 -100 500 100 100 500 -100 100 -500 -100 -100 hlineto
          500 -300 rmoveto
          -200 -300 200 vlineto
          endchar
        </CharString>
        <CharString name="uni0194">
          264 -200 rmoveto
          300 100 100 100 -100 100 -100 100 100 100 100 100 100 300 -200 -200 -100 -100 -100 100 -100 200 -200 -300 100 -100 100 -100 100 -100 -100 -100 -100 -100 100 hlineto
          200 hmoveto
          -100 100 100 hlineto
          endchar
        </CharString>
        <CharString name="uni0198">
          664 500 rmoveto
          100 200 -300 -100 -100 -100 -100 -100 -100 300 -100 -700 100 200 100 -100 100 -100 300 100 -100 100 -100 100 -100 100 100 100 100 100 100 hlineto
          endchar
        </CharString>
        <CharString name="uni019D">
          64 -200 rmoveto
          200 100 100 400 100 -200 100 -100 200 700 -200 -300 -100 200 -100 100 -200 -800 -100 hlineto
          endchar
        </CharString>
        <CharString name="uni01A0">
          664 600 rmoveto
          100 200 -100 -100 -500 -100 -100 -500 100 -100 400 100 100 hlineto
          -400 hmoveto
          500 200 -500 vlineto
          endchar
        </CharString>
        <CharString name="uni01AF">
          564 600 rmoveto
          200 200 -100 -100 -300 -600 -100 600 -200 -600 100 -100 300 100 100 hlineto
          endchar
        </CharString>
        <CharString name="uni01B3">
          664 400 rmoveto
          100 200 -100 100 -300 -300 -100 300 -200 -300 99 -100 101 -300 100 300 100 100 100 200 100 hlineto
          endchar
        </CharString>
        <CharString name="uni01F4">
          764 400 rmoveto
          -300 -100 100 -200 -200 100 -100 300 100 100 400 100 -500 -100 -100 -100 -100 -300 100 -98 100 -102 500 hlineto
          -197 800 rmoveto
          100 100 100 -200 -100 -100 -100 vlineto
          endchar
        </CharString>
        <CharString name="uni01F8">
          764 700 rmoveto
          -200 -300 -100 100 -100 100 -100 100 -200 -700 200 300 100 -100 100 -100 100 -100 200 hlineto
          -200 800 rmoveto
          100 -100 100 -200 -100 100 -100 vlineto
          endchar
        </CharString>
        <CharString name="uni0241">
          764 600 rmoveto
          -100 100 -500 -100 -100 -100 200 100 300 -200 -100 -100 -169 -300 169 200 100 100 200 hlineto
          endchar
        </CharString>
        <CharString name="uni024C">
          764 100 rmoveto
          -100 100 -100 100 200 300 -100 100 -500 -400 -100 -100 100 -200 200 100 100 -100 300 hlineto
          -300 400 rmoveto
          -100 -100 300 200 -200 vlineto
          endchar
        </CharString>
        <CharString name="uni0302">
          -107 -464 800 rmoveto
          100 100 -100 200 100 -100 100 -300 -100 -100 -100 vlineto
          endchar
        </CharString>
        <CharString name="uni0304">
          -107 -264 800 rmoveto
          100 -300 -100 vlineto
          endchar
        </CharString>
        <CharString name="uni0306">
          -107 -314 1000 rmoveto
          -100 -200 100 -100 -200 400 200 vlineto
          endchar
        </CharString>
        <CharString name="uni0307">
          -107 -514 800 rmoveto
          200 200 -200 hlineto
          endchar
        </CharString>
        <CharString name="uni0308">
          -107 -364 1000 rmoveto
          -200 200 200 vlineto
          -500 -200 rmoveto
          200 200 -200 hlineto
          endchar
        </CharString>
        <CharString name="uni030A">
          -107 -264 1000 rmoveto
          -300 -300 300 hlineto
          -200 100 rmoveto
          100 100 -100 vlineto
          endchar
        </CharString>
        <CharString name="uni030B">
          -107 -514 800 rmoveto
          100 100 100 -200 -100 -100 -100 vlineto
          500 hmoveto
          100 100 100 -200 -100 -100 -100 vlineto
          endchar
        </CharString>
        <CharString name="uni030C">
          -107 -364 1000 rmoveto
          -100 -100 100 -200 -100 100 -100 300 100 100 100 vlineto
          endchar
        </CharString>
        <CharString name="uni0313">
          -107 -514 800 rmoveto
          100 100 -100 hlineto
          100 hmoveto
          100 100 -100 hlineto
          endchar
        </CharString>
        <CharString name="uni031B">
          -107 -514 600 rmoveto
          200 200 -100 -100 -100 hlineto
          endchar
        </CharString>
        <CharString name="uni0326">
          -107 -364 -200 rmoveto
          100 100 100 -200 -100 -100 -100 vlineto
          endchar
        </CharString>
        <CharString name="uni0328">
          -107 -264 -200 rmoveto
          100 -200 100 -100 -200 vlineto
          endchar
        </CharString>
        <CharString name="uni032D">
          -107 -464 -200 rmoveto
          100 100 -100 200 100 -100 100 -300 -100 -100 -100 vlineto
          endchar
        </CharString>
        <CharString name="uni0375">
          -107 -364 -100 rmoveto
          100 100 100 -200 -100 -100 -100 vlineto
          endchar
        </CharString>
        <CharString name="uni0402">
          364 -200 rmoveto
          300 100 100 400 -100 100 -300 200 200 100 -500 -100 100 -600 200 300 200 -400 -200 hlineto
          endchar
        </CharString>
        <CharString name="uni0403">
          764 700 rmoveto
          -700 -700 200 600 500 hlineto
          -200 200 rmoveto
          100 100 100 -200 -100 -100 -100 vlineto
          endchar
        </CharString>
        <CharString name="uni0404">
          764 200 rmoveto
          -200 -100 -200 100 -100 100 300 100 -300 100 100 100 200 -100 200 100 -100 100 -400 -100 -100 -100 -100 -300 100 -100 100 -100 400 100 100 hlineto
          endchar
        </CharString>
        <CharString name="uni0409">
          764 300 rmoveto
          -100 100 -200 300 -300 -600 -100 -100 200 600 100 -600 300 100 100 hlineto
          -200 200 rmoveto
          -200 -100 200 vlineto
          endchar
        </CharString>
        <CharString name="uni040A">
          364 hmoveto
          300 100 100 200 -100 100 -200 300 -100 -300 -100 300 -200 -692 200 292 100 hlineto
          100 hmoveto
          100 -200 -100 hlineto
          endchar
        </CharString>
        <CharString name="uni040B">
          764 300 rmoveto
          -100 100 -300 200 200 100 -500 -100 100 -600 200 300 200 -300 200 hlineto
          endchar
        </CharString>
        <CharString name="uni040C">
          764 100 rmoveto
          -100 100 -100 100 -100 100 100 100 100 100 100 100 -200 -100 -100 -100 -100 -100 -100 300 -200 -700 200 200 100 -100 100 -100 300 hlineto
          -300 800 rmoveto
          100 100 100 -200 -100 -100 -100 vlineto
          endchar
        </CharString>
        <CharString name="uni040D">
          64 hmoveto
          200 100 100 100 100 100 100 -300 200 700 -200 -100 -100 -100 -100 -100 -100 300 -200 hlineto
          400 100 rmoveto
          100 -100 100 -200 -100 100 -100 vlineto
          endchar
        </CharString>
        <CharString name="uni040E">
          64 100 rmoveto
          100 -100 500 100 100 600 -200 -300 -300 300 -200 -300 100 -100 400 -200 -300 100 -200 hlineto
          450 800 rmoveto
          -100 -200 100 -100 -200 400 200 vlineto
          endchar
        </CharString>
        <CharString name="uni040F">
          364 -200 rmoveto
          100 200 300 700 -200 -600 -300 600 -200 -700 300 hlineto
          endchar
        </CharString>
        <CharString name="uni0411">
          764 300 rmoveto
          -100 100 -400 200 300 100 -500 -700 600 100 100 hlineto
          -200 200 rmoveto
          -200 -300 200 vlineto
          endchar
        </CharString>
        <CharString name="uni0413">
          764 700 rmoveto
          -700 -700 200 600 500 hlineto
          endchar
        </CharString>
        <CharString name="uni0414">
          164 hmoveto
          500 -200 100 300 -100 600 -400 -500 -100 -100 -100 -300 100 hlineto
          200 800 rmoveto
          100 -500 -100 hlineto
          endchar
        </CharString>
        <CharString name="uni0416">
          664 400 rmoveto
          100 100 200 -100 -100 -100 -100 -100 200 -100 -200 -100 100 -100 100 -100 -200 100 -100 100 -100 -100 -100 -100 -200 100 100 100 100 100 -200 100 200 100 -100 100 -100 100 200 -100 100 -100 100 vlineto
          endchar
        </CharString>
        <CharString name="uni0417">
          564 400 rmoveto
          -300 -100 300 -200 -300 100 -200 -100 100 -100 500 100 100 200 -100 100 100 200 -100 100 -500 -100 -100 -100 200 100 300 hlineto
          endchar
        </CharString>
        <CharString name="uni0418">
          64 hmoveto
          200 100 100 100 100 100 100 -300 200 700 -200 -100 -100 -100 -100 -100 -100 300 -200 hlineto
          endchar
        </CharString>
        <CharString name="uni0419">
          64 hmoveto
          200 100 100 100 100 100 100 -300 200 700 -200 -100 -100 -100 -100 -100 -100 300 -200 hlineto
          450 300 rmoveto
          -100 -200 100 -100 -200 400 200 vlineto
          endchar
        </CharString>
        <CharString name="uni041B">
          364 600 rmoveto
          200 -600 200 700 -500 -500 -100 -100 -100 -100 200 100 100 hlineto
          endchar
        </CharString>
        <CharString name="uni041F">
          764 700 rmoveto
          -700 -700 200 600 300 -600 200 hlineto
          endchar
        </CharString>
        <CharString name="uni0423">
          64 100 rmoveto
          100 -100 500 100 100 600 -200 -300 -300 300 -200 -300 100 -100 400 -200 -300 100 -200 hlineto
          endchar
        </CharString>
        <CharString name="uni0424">
          164 100 rmoveto
          200 -100 100 100 200 100 100 300 -100 100 -200 100 -100 -100 -200 -100 -100 -300 100 hlineto
          400 hmoveto
          -100 300 100 hlineto
          -300 hmoveto
          100 -300 -100 hlineto
          endchar
        </CharString>
        <CharString name="uni0426">
          664 -200 rmoveto
          100 300 -100 600 -200 -600 -200 600 -200 -700 600 hlineto
          endchar
        </CharString>
        <CharString name="uni0427">
          64 400 rmoveto
          100 -100 400 -300 200 700 -200 -300 -300 300 -200 hlineto
          endchar
        </CharString>
        <CharString name="uni0428">
          464 700 rmoveto
          -100 -600 -100 600 -200 -700 700 700 -200 -600 -100 hlineto
          endchar
        </CharString>
        <CharString name="uni0429">
          664 -200 rmoveto
          100 300 -100 600 -100 -600 -100 600 -100 -600 -100 600 -200 -700 600 hlineto
          endchar
        </CharString>
        <CharString name="uni042A">
          764 300 rmoveto
          -100 100 -300 300 -300 -100 100 -600 500 100 100 hlineto
          -200 200 rmoveto
          -200 -200 200 vlineto
          endchar
        </CharString>
        <CharString name="uni042B">
          336 300 rmoveto
          -200 -100 200 vlineto
          300 hmoveto
          -100 100 -200 300 -200 -700 400 100 100 hlineto
          50 600 rmoveto
          -700 200 700 vlineto
          endchar
        </CharString>
        <CharString name="uni042C">
          564 300 rmoveto
          -200 -300 200 vlineto
          500 hmoveto
          -100 100 -400 300 -200 -700 600 100 100 hlineto
          endchar
        </CharString>
        <CharString name="uni042D">
          64 100 rmoveto
          100 -100 400 100 100 100 100 300 -100 100 -100 100 -400 -100 -100 -100 200 100 200 -100 100 -100 -300 -100 300 -100 -100 -100 -200 100 -200 hlineto
          endchar
        </CharString>
        <CharString name="uni042E">
          364 600 rmoveto
          -100 -200 -100 300 -100 -700 100 300 100 -200 100 -100 300 100 100 500 -100 100 -300 hlineto
          200 -600 rmoveto
          -100 500 100 hlineto
          endchar
        </CharString>
        <CharString name="uni042F">
          64 hmoveto
          300 100 100 100 100 -200 200 700 -600 -100 -100 -300 200 -100 -100 -100 -100 hlineto
          200 300 rmoveto
          200 300 -300 -200 100 vlineto
          endchar
        </CharString>
        <CharString name="uni0474">
          64 200 rmoveto
          100 -100 100 -100 100 100 100 100 100 400 200 100 -400 -500 -100 500 -200 hlineto
          endchar
        </CharString>
        <CharString name="uni048A">
          664 -100 rmoveto
          100 800 -200 -100 -100 -100 -100 -100 -100 300 -200 -700 200 100 100 100 100 100 100 -300 100 hlineto
          -150 1000 rmoveto
          -100 -200 100 -100 -200 400 200 vlineto
          -50 -1200 rmoveto
          100 100 -100 hlineto
          endchar
        </CharString>
        <CharString name="uni048C">
          64 500 rmoveto
          100 -500 500 100 100 200 -100 100 -300 100 200 100 -200 100 -200 -100 -100 hlineto
          500 -300 rmoveto
          -200 -200 200 vlineto
          endchar
        </CharString>
        <CharString name="uni048E">
          564 100 rmoveto
          100 200 100 300 -100 100 -600 -700 200 200 300 hlineto
          -300 400 rmoveto
          300 -300 -100 100 -100 100 -100 hlineto
          -100 vmoveto
          100 -100 -100 hlineto
          endchar
        </CharString>
        <CharString name="uni0490">
          264 600 rmoveto
          500 300 -100 -200 -600 -700 200 hlineto
          endchar
        </CharString>
        <CharString name="uni0492">
          364 300 rmoveto
          200 100 -200 200 400 100 -600 -300 -100 -100 100 -300 200 hlineto
          endchar
        </CharString>
        <CharString name="uni0494">
          264 -200 rmoveto
          400 100 100 400 -100 100 -400 200 300 100 -500 -700 200 300 300 -400 -300 hlineto
          endchar
        </CharString>
        <CharString name="uni0496">
          664 400 rmoveto
          100 100 200 -100 -100 -100 -100 -100 200 -100 -200 -100 100 -100 100 -100 -200 100 -100 100 -100 -100 -100 -100 -200 100 100 100 100 100 -200 100 200 100 -100 100 -300 100 400 -100 100 -100 100 vlineto
          endchar
        </CharString>
        <CharString name="uni0498">
          564 -200 rmoveto
          100 -200 100 300 100 100 200 -100 100 100 200 -100 100 -500 -100 -100 -100 200 100 300 -200 -300 -100 300 -200 -300 100 -200 -100 100 -100 100 -200 vlineto
          endchar
        </CharString>
        <CharString name="uni049A">
          664 -200 rmoveto
          100 300 -100 100 -100 100 -100 100 100 100 100 100 100 100 -200 -100 -100 -100 -100 -100 -100 300 -200 -700 200 200 100 -100 100 -100 200 hlineto
          endchar
        </CharString>
        <CharString name="uni049C">
          264 100 rmoveto
          100 200 100 -100 100 -100 100 -100 100 100 -100 100 -100 100 -100 100 -100 200 -100 -200 -100 300 -100 -700 100 300 100 hlineto
          300 100 rmoveto
          100 -100 -100 vlineto
          200 100 rmoveto
          100 -100 -100 vlineto
          200 100 rmoveto
          100 -100 -100 vlineto
          endchar
        </CharString>
        <CharString name="uni049E">
          64 500 rmoveto
          100 -500 100 200 100 -100 100 -100 300 100 -100 100 -100 100 -100 100 100 100 100 100 100 100 -200 -100 -100 -100 -100 100 -100 100 -100 -100 -100 hlineto
          300 -200 rmoveto
          -100 100 100 hlineto
          endchar
        </CharString>
        <CharString name="uni04A0">
          764 100 rmoveto
          -100 100 -100 100 -100 100 100 100 100 100 100 100 -200 -100 -100 -100 -100 -100 -100 300 -200 -100 100 -600 100 200 100 -100 100 -100 300 hlineto
          endchar
        </CharString>
        <CharString name="uni04A2">
          664 -200 rmoveto
          100 300 -100 600 -200 -300 -200 300 -200 -700 200 300 200 -300 200 hlineto
          endchar
        </CharString>
        <CharString name="uni04A4">
          64 600 rmoveto
          100 -600 200 300 200 -300 200 700 -200 -300 -200 300 -300 hlineto
          endchar
        </CharString>
        <CharString name="uni04A6">
          364 -200 rmoveto
          300 100 100 400 -100 100 -200 300 -400 -700 200 600 100 -600 100 300 100 -400 -200 hlineto
          endchar
        </CharString>
        <CharString name="uni04A8">
          164 hmoveto
          300 100 -200 500 300 100 -400 -100 -100 -500 100 hlineto
          500 hmoveto
          -100 100 100 -100 100 -200 200 -100 -200 100 -100 vlineto
          200 300 rmoveto
          100 -200 -100 vlineto
          200 hmoveto
          -200 100 200 vlineto
          endchar
        </CharString>
        <CharString name="uni04AA">
          664 -200 rmoveto
          100 -200 100 200 100 100 100 -200 -100 -200 100 -100 300 100 100 200 -100 200 100 -100 100 -400 -100 -100 -100 -100 -300 100 -100 100 -100 100 -200 vlineto
          endchar
        </CharString>
        <CharString name="uni04AC">
          514 -200 rmoveto
          100 300 -100 500 200 100 -600 -100 200 -600 200 hlineto
          endchar
        </CharString>
        <CharString name="uni04B0">
          714 100 rmoveto
          100 -200 100 100 100 100 300 -200 -300 -200 300 -200 -300 99 -100 101 -100 -200 -100 200 -100 200 100 vlineto
          endchar
        </CharString>
        <CharString name="uni04B2">
          664 -200 rmoveto
          100 400 -100 100 -100 100 100 100 100 200 -200 -100 -100 -100 -100 100 -100 100 -200 -200 100 -100 100 -100 -100 -100 -100 -200 200 100 100 100 100 -100 100 -100 100 hlineto
          endchar
        </CharString>
        <CharString name="uni04B4">
          664 -200 rmoveto
          100 300 -100 600 -100 -600 -200 500 100 100 -400 -100 100 -600 500 hlineto
          endchar
        </CharString>
        <CharString name="uni04B6">
          664 -200 rmoveto
          100 300 -100 600 -200 -300 -200 300 -200 -300 100 -100 300 -300 200 hlineto
          endchar
        </CharString>
        <CharString name="uni04B8">
          364 100 rmoveto
          100 200 100 -300 200 700 -200 -300 -100 200 -100 -200 -100 300 -200 -300 100 -100 200 hlineto
          endchar
        </CharString>
        <CharString name="uni04BA">
          764 300 rmoveto
          -100 100 -400 300 -200 -700 200 300 300 -300 200 hlineto
          endchar
        </CharString>
        <CharString name="uni04BC">
          64 300 rmoveto
          200 -200 100 -100 300 100 100 100 -200 -100 -100 200 300 300 -100 100 -300 -100 -100 -200 -100 100 -100 hlineto
          400 -100 rmoveto
          200 100 -200 vlineto
          endchar
        </CharString>
        <CharString name="uni04BE">
          64 300 rmoveto
          200 -200 100 -100 100 -200 100 200 100 100 100 100 -200 -100 -100 200 300 300 -100 100 -300 -100 -100 -200 -100 100 -100 hlineto
          400 -100 rmoveto
          200 100 -200 vlineto
          endchar
        </CharString>
        <CharString name="uni04C1">
          664 400 rmoveto
          100 100 200 -100 -100 -100 -100 -100 200 -100 -200 -100 100 -100 100 -100 -200 100 -100 100 -100 -100 -100 -100 -200 100 100 100 100 100 -200 100 200 100 -100 100 -100 100 200 -100 100 -100 100 vlineto
          -50 600 rmoveto
          -100 -200 100 -100 -200 400 200 vlineto
          endchar
        </CharString>
        <CharString name="uni04C3">
          364 -200 rmoveto
          300 100 100 200 -100 100 -100 100 -100 100 100 100 100 100 100 100 -200 -100 -100 -100 -100 -100 -100 300 -200 -700 200 200 100 -100 100 -100 100 -100 -200 hlineto
          endchar
        </CharString>
        <CharString name="uni04C5">
          664 -100 rmoveto
          100 200 -100 600 -400 -500 -100 -100 -100 -100 200 100 100 500 100 -600 200 hlineto
          -100 -200 rmoveto
          100 100 -100 hlineto
          endchar
        </CharString>
        <CharString name="uni04C7">
          364 -200 rmoveto
          300 100 100 800 -200 -300 -300 300 -200 -700 200 300 300 -400 -200 hlineto
          endchar
        </CharString>
        <CharString name="uni04C9">
          664 -100 rmoveto
          100 200 -100 600 -200 -300 -200 300 -200 -700 200 300 200 -300 200 hlineto
          -100 -200 rmoveto
          100 100 -100 hlineto
          endchar
        </CharString>
        <CharString name="uni04CB">
          664 -100 rmoveto
          100 200 -100 600 -200 -300 -200 300 -200 -300 100 -100 300 -300 200 hlineto
          -100 -200 rmoveto
          100 100 -100 hlineto
          endchar
        </CharString>
        <CharString name="uni04CD">
          664 -100 rmoveto
          100 200 -100 600 -100 -100 -100 -100 -200 100 -100 100 -100 -700 100 300 100 -100 200 100 100 -300 100 hlineto
          -100 -200 rmoveto
          100 100 -100 hlineto
          endchar
        </CharString>
        <CharString name="uni04DA">
          64 500 rmoveto
          200 100 300 -200 -500 -300 100 -100 500 100 100 500 -100 100 -500 -100 -100 hlineto
          500 -300 rmoveto
          -200 -300 200 vlineto
          200 700 rmoveto
          -200 200 200 vlineto
          -500 -200 rmoveto
          200 200 -200 hlineto
          endchar
        </CharString>
        <CharString name="uni04DC">
          664 400 rmoveto
          100 100 200 -100 -100 -100 -100 -100 200 -100 -200 -100 100 -100 100 -100 -200 100 -100 100 -100 -100 -100 -100 -200 100 100 100 100 100 -200 100 200 100 -100 100 -100 100 200 -100 100 -100 100 vlineto
          -100 600 rmoveto
          -200 200 200 vlineto
          -500 -200 rmoveto
          200 200 -200 hlineto
          endchar
        </CharString>
        <CharString name="uni04DE">
          564 400 rmoveto
          -300 -100 300 -200 -300 100 -200 -100 100 -100 500 100 100 200 -100 100 100 200 -100 100 -500 -100 -100 -100 200 100 300 hlineto
          -100 400 rmoveto
          -200 200 200 vlineto
          -500 -200 rmoveto
          200 200 -200 hlineto
          endchar
        </CharString>
        <CharString name="uni04E2">
          64 hmoveto
          200 100 100 100 100 100 100 -300 200 700 -200 -100 -100 -100 -100 -100 -100 300 -200 hlineto
          500 100 rmoveto
          100 -300 -100 vlineto
          endchar
        </CharString>
        <CharString name="uni04E4">
          64 hmoveto
          200 100 100 100 100 100 100 -300 200 700 -200 -100 -100 -100 -100 -100 -100 300 -200 hlineto
          400 300 rmoveto
          -200 200 200 vlineto
          -500 -200 rmoveto
          200 200 -200 hlineto
          endchar
        </CharString>
        <CharString name="uni04E8">
          764 600 rmoveto
          -100 100 -500 -100 -100 -500 100 -100 500 100 100 hlineto
          -500 500 rmoveto
          300 -200 -300 hlineto
          -300 vmoveto
          200 300 -200 vlineto
          endchar
        </CharString>
        <CharString name="uni04EA">
          764 600 rmoveto
          -100 100 -500 -100 -100 -500 100 -100 500 100 100 hlineto
          -500 500 rmoveto
          300 -200 -300 hlineto
          -300 vmoveto
          200 300 -200 vlineto
          -100 900 rmoveto
          -200 200 200 vlineto
          -500 -200 rmoveto
          200 200 -200 hlineto
          endchar
        </CharString>
        <CharString name="uni04EC">
          64 100 rmoveto
          100 -100 400 100 100 100 100 300 -100 100 -100 100 -400 -100 -100 -100 200 100 200 -100 100 -100 -300 -100 300 -100 -100 -100 -200 100 -200 hlineto
          400 800 rmoveto
          -200 200 200 vlineto
          -500 -200 rmoveto
          200 200 -200 hlineto
          endchar
        </CharString>
        <CharString name="uni04EE">
          64 100 rmoveto
          100 -100 500 100 100 600 -200 -300 -300 300 -200 -300 100 -100 400 -200 -300 100 -200 hlineto
          500 600 rmoveto
          100 -300 -100 vlineto
          endchar
        </CharString>
        <CharString name="uni04F0">
          64 100 rmoveto
          100 -100 500 100 100 600 -200 -300 -300 300 -200 -300 100 -100 400 -200 -300 100 -200 hlineto
          400 800 rmoveto
          -200 200 200 vlineto
          -500 -200 rmoveto
          200 200 -200 hlineto
          endchar
        </CharString>
        <CharString name="uni04F2">
          64 100 rmoveto
          100 -100 500 100 100 600 -200 -300 -300 300 -200 -300 100 -100 400 -200 -300 100 -200 hlineto
          300 600 rmoveto
          100 100 100 -200 -100 -100 -100 vlineto
          500 hmoveto
          100 100 100 -200 -100 -100 -100 vlineto
          endchar
        </CharString>
        <CharString name="uni04F4">
          64 400 rmoveto
          100 -100 400 -300 200 700 -200 -300 -300 300 -200 hlineto
          400 300 rmoveto
          -200 200 200 vlineto
          -500 -200 rmoveto
          200 200 -200 hlineto
          endchar
        </CharString>
        <CharString name="uni04F6">
          264 -200 rmoveto
          100 300 -100 500 500 100 -700 -700 200 hlineto
          endchar
        </CharString>
        <CharString name="uni04F8">
          336 300 rmoveto
          -200 -100 200 vlineto
          300 hmoveto
          -100 100 -200 300 -200 -700 400 100 100 hlineto
          50 600 rmoveto
          -700 200 700 vlineto
          -322 300 rmoveto
          -200 200 200 vlineto
          -500 -200 rmoveto
          200 200 -200 hlineto
          endchar
        </CharString>
        <CharString name="uni04FA">
          64 -200 rmoveto
          200 100 100 400 200 100 -200 200 400 100 -600 -300 -100 -100 100 -400 -100 hlineto
          endchar
        </CharString>
        <CharString name="uni04FC">
          764 200 rmoveto
          -100 100 -100 100 100 100 100 200 -200 -100 -100 -100 -100 100 -100 100 -200 -200 100 -100 100 -100 -100 -100 -100 -200 200 100 100 100 100 -100 100 -200 -200 -100 300 100 100 hlineto
          endchar
        </CharString>
        <CharString name="uni04FE">
          64 300 rmoveto
          100 -100 -100 -200 200 100 100 100 100 -100 100 -100 200 200 -100 100 100 100 -100 100 100 200 -200 -100 -100 -100 -100 100 -100 100 -200 -200 100 -100 -100 hlineto
          endchar
        </CharString>
        <CharString name="uni0510">
          264 600 rmoveto
          300 -100 200 100 -100 100 -500 -100 -100 -200 100 -100 -100 -200 100 -100 500 100 100 100 -200 -100 -300 200 300 100 -300 hlineto
          endchar
        </CharString>
        <CharString name="uni0512">
          364 -200 rmoveto
          300 100 100 800 -500 -500 -100 -100 -100 -100 200 100 100 500 200 -700 -200 hlineto
          endchar
        </CharString>
        <CharString name="uni0524">
          664 -200 rmoveto
          100 300 -100 600 -600 -700 200 600 200 -600 200 hlineto
          endchar
        </CharString>
        <CharString name="uni0526">
          664 300 rmoveto
          -100 100 -300 300 -200 -700 200 300 200 -300 200 -200 100 300 -100 hlineto
          endchar
        </CharString>
        <CharString name="uni052E">
          664 -200 rmoveto
          100 300 -100 600 -400 -500 -100 -100 -100 -100 200 100 100 500 100 -600 200 hlineto
          endchar
        </CharString>
        <CharString name="uni058F">
          64 400 rmoveto
          100 100 100 100 200 -100 -100 -100 100 -100 -100 -100 100 -200 200 200 100 100 -100 100 100 100 -100 100 -100 100 -400 -100 -100 hlineto
          endchar
        </CharString>
        <CharString name="uni1E02">
          764 300 rmoveto
          -100 100 100 200 -100 100 -600 -700 600 100 100 hlineto
          -500 300 rmoveto
          200 300 -200 vlineto
          -300 -300 rmoveto
          200 300 -200 vlineto
          -300 700 rmoveto
          200 200 -200 hlineto
          endchar
        </CharString>
        <CharString name="uni1E0A">
          764 500 rmoveto
          -100 100 -100 100 -500 -700 500 100 100 100 100 hlineto
          -300 hmoveto
          -100 -200 500 200 -100 100 -300 vlineto
          -300 600 rmoveto
          200 200 -200 hlineto
          endchar
        </CharString>
        <CharString name="uni1E0C">
          264 -200 rmoveto
          200 200 100 100 100 100 100 300 -100 100 -100 100 -500 -700 200 hlineto
          200 200 rmoveto
          -100 -200 500 200 -100 100 -300 vlineto
          endchar
        </CharString>
        <CharString name="uni1E12">
          264 -200 rmoveto
          100 100 -100 200 100 -100 100 100 100 100 100 100 300 -100 100 -100 100 -500 -700 100 -100 -100 -100 vlineto
          400 400 rmoveto
          -100 -200 500 200 -100 100 -300 vlineto
          endchar
        </CharString>
        <CharString name="uni1E1E">
          764 700 rmoveto
          -700 -700 200 300 400 100 -400 200 500 hlineto
          -450 200 rmoveto
          200 200 -200 hlineto
          endchar
        </CharString>
        <CharString name="uni1E22">
          764 700 rmoveto
          -200 -300 -300 300 -200 -700 200 300 300 -300 200 hlineto
          -450 800 rmoveto
          200 200 -200 hlineto
          endchar
        </CharString>
        <CharString name="uni1E24">
          764 700 rmoveto
          -200 -300 -300 300 -200 -700 200 300 300 -300 200 hlineto
          -450 -200 rmoveto
          200 200 -200 hlineto
          endchar
        </CharString>
        <CharString name="uni1E3C">
          364 -200 rmoveto
          100 100 -100 200 100 -100 100 200 100 -500 600 -200 -700 200 -100 -100 -100 vlineto
          endchar
        </CharString>
        <CharString name="uni1E44">
          764 700 rmoveto
          -200 -300 -100 100 -100 100 -100 100 -200 -700 200 300 100 -100 100 -100 100 -100 200 hlineto
          -450 800 rmoveto
          200 200 -200 hlineto
          endchar
        </CharString>
        <CharString name="uni1E4A">
          764 700 rmoveto
          -200 -300 -100 100 -100 100 -100 100 -200 -700 200 300 100 -100 100 -100 100 -100 200 hlineto
          -400 -200 rmoveto
          100 100 -100 200 100 -100 100 -300 -100 -100 -100 vlineto
          endchar
        </CharString>
        <CharString name="uni1E56">
          764 600 rmoveto
          -100 100 -600 -700 200 200 400 100 100 hlineto
          -500 hmoveto
          300 300 -300 vlineto
          -250 500 rmoveto
          200 200 -200 hlineto
          endchar
        </CharString>
        <CharString name="uni1E5A">
          764 100 rmoveto
          -100 100 -100 100 200 300 -100 100 -600 -700 200 200 100 -100 100 -100 300 hlineto
          -300 400 rmoveto
          -100 -200 300 300 -200 vlineto
          -300 -600 rmoveto
          200 200 -200 hlineto
          endchar
        </CharString>
        <CharString name="uni1E60">
          764 300 rmoveto
          -100 100 -400 200 200 -100 200 100 -100 100 -400 -100 -100 -200 100 -100 400 -200 -300 100 -200 -100 100 -100 500 100 100 hlineto
          -500 700 rmoveto
          200 200 -200 hlineto
          endchar
        </CharString>
        <CharString name="uni1E62">
          314 -200 rmoveto
          200 200 150 100 100 200 -100 100 -400 200 200 -100 200 100 -100 100 -400 -100 -100 -200 100 -100 400 -200 -300 100 -200 -100 100 -100 150 hlineto
          endchar
        </CharString>
        <CharString name="uni1E6A">
          714 700 rmoveto
          -600 -100 200 -600 200 600 200 hlineto
          -400 200 rmoveto
          200 200 -200 hlineto
          endchar
        </CharString>
        <CharString name="uni1E6C">
          314 -200 rmoveto
          200 800 200 100 -600 -100 200 hlineto
          endchar
        </CharString>
        <CharString name="uni1E92">
          364 -200 rmoveto
          200 200 200 100 -400 100 100 100 100 100 100 100 100 200 -700 -100 400 -100 -100 -100 -100 -100 -100 -100 -100 -200 300 hlineto
          endchar
        </CharString>
        <CharString name="uni1E9E">
          464 300 rmoveto
          100 -200 200 200 -100 100 -100 100 100 100 100 100 -600 -100 -100 -600 200 600 200 -100 -100 -100 100 hlineto
          -100 -400 rmoveto
          300 100 -300 hlineto
          endchar
        </CharString>
        <CharString name="uni1EA0">
          764 500 rmoveto
          -100 100 -100 100 -300 -100 -100 -100 -100 -500 200 200 300 -200 200 hlineto
          -500 300 rmoveto
          200 100 100 100 -100 100 -200 vlineto
          -252 -500 rmoveto
          200 200 -200 hlineto
          endchar
        </CharString>
        <CharString name="uni1EA2">
          364 700 rmoveto
          -100 -100 -100 -100 -100 -500 200 200 300 -200 200 500 -100 100 -100 100 -100 100 -100 hlineto
          -100 -500 rmoveto
          200 100 100 100 -100 100 -200 vlineto
          -300 600 rmoveto
          200 -100 100 200 -300 hlineto
          endchar
        </CharString>
        <CharString name="uni1EA4">
          764 500 rmoveto
          -100 100 -100 100 -300 -100 -100 -100 -100 -500 200 200 300 -200 200 hlineto
          -500 300 rmoveto
          200 100 100 100 -100 100 -200 vlineto
          -187 450 rmoveto
          75 75 -75 150 75 -75 75 -225 -75 -75 -75 vlineto
          300 200 rmoveto
          75 75 75 -150 -75 -75 -75 vlineto
          endchar
        </CharString>
        <CharString name="uni1EA6">
          764 500 rmoveto
          -100 100 -100 100 -300 -100 -100 -100 -100 -500 200 200 300 -200 200 hlineto
          -500 300 rmoveto
          200 100 100 100 -100 100 -200 vlineto
          -186 450 rmoveto
          75 75 -75 150 75 -75 75 -225 -75 -75 -75 vlineto
          225 200 rmoveto
          75 -75 75 -150 -75 75 -75 vlineto
          endchar
        </CharString>
        <CharString name="uni1EA8">
          764 500 rmoveto
          -100 100 -100 100 -300 -100 -100 -100 -100 -500 200 200 300 -200 200 hlineto
          -500 300 rmoveto
          200 100 100 100 -100 100 -200 vlineto
          -186 450 rmoveto
          75 75 -75 150 75 -75 75 -225 -75 -75 -75 vlineto
          300 275 rmoveto
          150 -75 75 150 -225 hlineto
          75 -225 rmoveto
          75 75 -75 hlineto
          endchar
        </CharString>
        <CharString name="uni1EAA">
          764 500 rmoveto
          -100 100 -100 100 -300 -100 -100 -100 -100 -500 200 200 300 -200 200 hlineto
          -500 300 rmoveto
          200 100 100 100 -100 100 -200 vlineto
          -186 450 rmoveto
          75 75 -75 150 75 -75 75 -225 -75 -75 -75 vlineto
          111 200 rmoveto
          75 75 75 -75 -75 -75 -75 vlineto
          225 hmoveto
          75 75 75 -75 -75 -75 -75 vlineto
          endchar
        </CharString>
        <CharString name="uni1EAC">
          764 500 rmoveto
          -100 100 -100 100 -300 -100 -100 -100 -100 -500 200 200 300 -200 200 hlineto
          -500 300 rmoveto
          200 100 100 100 -100 100 -200 vlineto
          -200 500 rmoveto
          100 100 -100 200 100 -100 100 -300 -100 -100 -100 vlineto
          148 -1000 rmoveto
          200 200 -200 hlineto
          endchar
        </CharString>
        <CharString name="uni1EAE">
          764 500 rmoveto
          -100 100 -100 100 -300 -100 -100 -100 -100 -500 200 200 300 -200 200 hlineto
          -500 300 rmoveto
          200 100 100 100 -100 100 -200 vlineto
          -76 600 rmoveto
          -75 -150 75 -75 -150 300 150 vlineto
          -109 50 rmoveto
          75 75 75 -150 -75 -75 -75 vlineto
          endchar
        </CharString>
        <CharString name="uni1EB0">
          764 500 rmoveto
          -100 100 -100 100 -300 -100 -100 -100 -100 -500 200 200 300 -200 200 hlineto
          -500 300 rmoveto
          200 100 100 100 -100 100 -200 vlineto
          -75 600 rmoveto
          -75 -150 75 -75 -150 300 150 vlineto
          -36 50 rmoveto
          75 -75 75 -150 -75 75 -75 vlineto
          endchar
        </CharString>
        <CharString name="uni1EB2">
          764 500 rmoveto
          -100 100 -100 100 -300 -100 -100 -100 -100 -500 200 200 300 -200 200 hlineto
          -500 300 rmoveto
          200 100 100 100 -100 100 -200 vlineto
          -75 600 rmoveto
          -75 -150 75 -75 -150 300 150 vlineto
          -2 125 rmoveto
          150 -75 75 150 -225 hlineto
          75 -225 rmoveto
          75 75 -75 hlineto
          endchar
        </CharString>
        <CharString name="uni1EB4">
          764 500 rmoveto
          -100 100 -100 100 -300 -100 -100 -100 -100 -500 200 200 300 -200 200 hlineto
          -500 300 rmoveto
          200 100 100 100 -100 100 -200 vlineto
          -75 600 rmoveto
          -75 -150 75 -75 -150 300 150 vlineto
          -225 50 rmoveto
          75 75 75 -75 -75 -75 -75 vlineto
          225 hmoveto
          75 75 75 -75 -75 -75 -75 vlineto
          endchar
        </CharString>
        <CharString name="uni1EB6">
          764 500 rmoveto
          -100 100 -100 100 -300 -100 -100 -100 -100 -500 200 200 300 -200 200 hlineto
          -500 300 rmoveto
          200 100 100 100 -100 100 -200 vlineto
          -52 700 rmoveto
          -100 -200 100 -100 -200 400 200 vlineto
          -300 -1200 rmoveto
          200 200 -200 hlineto
          endchar
        </CharString>
        <CharString name="uni1EB8">
          303 -200 rmoveto
          200 200 261 100 -500 200 400 100 -400 200 500 100 -700 -700 239 hlineto
          endchar
        </CharString>
        <CharString name="uni1EBA">
          364 700 rmoveto
          -300 -700 700 100 -500 200 400 100 -400 200 500 100 -300 100 -100 hlineto
          -100 100 rmoveto
          200 -100 100 200 -300 hlineto
          endchar
        </CharString>
        <CharString name="uni1EBC">
          764 100 rmoveto
          -500 200 400 100 -400 200 500 100 -700 -700 700 hlineto
          -400 800 rmoveto
          100 100 100 -100 -100 -100 -100 vlineto
          300 hmoveto
          100 100 100 -100 -100 -100 -100 vlineto
          endchar
        </CharString>
        <CharString name="uni1EBE">
          764 100 rmoveto
          -500 200 400 100 -400 200 500 100 -700 -700 700 hlineto
          -387 750 rmoveto
          75 75 -75 150 75 -75 75 -225 -75 -75 -75 vlineto
          300 200 rmoveto
          75 75 75 -150 -75 -75 -75 vlineto
          endchar
        </CharString>
        <CharString name="uni1EC0">
          764 100 rmoveto
          -500 200 400 100 -400 200 500 100 -700 -700 700 hlineto
          -386 750 rmoveto
          75 75 -75 150 75 -75 75 -225 -75 -75 -75 vlineto
          225 200 rmoveto
          75 -75 75 -150 -75 75 -75 vlineto
          endchar
        </CharString>
        <CharString name="uni1EC2">
          764 100 rmoveto
          -500 200 400 100 -400 200 500 100 -700 -700 700 hlineto
          -386 750 rmoveto
          75 75 -75 150 75 -75 75 -225 -75 -75 -75 vlineto
          300 275 rmoveto
          150 -75 75 150 -225 hlineto
          75 -225 rmoveto
          75 75 -75 hlineto
          endchar
        </CharString>
        <CharString name="uni1EC4">
          764 100 rmoveto
          -500 200 400 100 -400 200 500 100 -700 -700 700 hlineto
          -386 750 rmoveto
          75 75 -75 150 75 -75 75 -225 -75 -75 -75 vlineto
          111 200 rmoveto
          75 75 75 -75 -75 -75 -75 vlineto
          225 hmoveto
          75 75 75 -75 -75 -75 -75 vlineto
          endchar
        </CharString>
        <CharString name="uni1EC6">
          376 800 rmoveto
          100 100 -100 200 100 -100 100 -300 -100 -100 -100 vlineto
          127 -1000 rmoveto
          200 200 261 100 -500 200 400 100 -400 200 500 100 -700 -700 239 hlineto
          endchar
        </CharString>
        <CharString name="uni1EC8">
          414 700 rmoveto
          -300 -100 200 -500 -200 -100 600 100 -200 500 200 100 -200 100 -100 hlineto
          -100 100 rmoveto
          200 -100 100 200 -300 hlineto
          endchar
        </CharString>
        <CharString name="uni1ECA">
          314 -200 rmoveto
          200 200 200 100 -200 500 200 100 -600 -100 200 -500 -200 -100 200 hlineto
          endchar
        </CharString>
        <CharString name="uni1ECC">
          314 -200 rmoveto
          200 200 150 100 100 500 -100 100 -500 -100 -100 -500 100 -100 150 hlineto
          -50 100 rmoveto
          500 300 -500 vlineto
          endchar
        </CharString>
        <CharString name="uni1ECE">
          364 700 rmoveto
          -200 -100 -100 -500 100 -100 500 100 100 500 -100 100 -200 100 -100 hlineto
          -100 -700 rmoveto
          500 300 -500 vlineto
          -300 800 rmoveto
          200 -100 100 200 -300 hlineto
          endchar
        </CharString>
        <CharString name="uni1ED0">
          764 600 rmoveto
          -100 100 -500 -100 -100 -500 100 -100 500 100 100 hlineto
          -500 hmoveto
          500 300 -500 vlineto
          -187 650 rmoveto
          75 75 -75 150 75 -75 75 -225 -75 -75 -75 vlineto
          300 200 rmoveto
          75 75 75 -150 -75 -75 -75 vlineto
          endchar
        </CharString>
        <CharString name="uni1ED2">
          764 600 rmoveto
          -100 100 -500 -100 -100 -500 100 -100 500 100 100 hlineto
          -500 hmoveto
          500 300 -500 vlineto
          -186 650 rmoveto
          75 75 -75 150 75 -75 75 -225 -75 -75 -75 vlineto
          225 200 rmoveto
          75 -75 75 -150 -75 75 -75 vlineto
          endchar
        </CharString>
        <CharString name="uni1ED4">
          764 600 rmoveto
          -100 100 -500 -100 -100 -500 100 -100 500 100 100 hlineto
          -500 hmoveto
          500 300 -500 vlineto
          -186 650 rmoveto
          75 75 -75 150 75 -75 75 -225 -75 -75 -75 vlineto
          300 275 rmoveto
          150 -75 75 150 -225 hlineto
          75 -225 rmoveto
          75 75 -75 hlineto
          endchar
        </CharString>
        <CharString name="uni1ED6">
          764 600 rmoveto
          -100 100 -500 -100 -100 -500 100 -100 500 100 100 hlineto
          -500 hmoveto
          500 300 -500 vlineto
          -186 650 rmoveto
          75 75 -75 150 75 -75 75 -225 -75 -75 -75 vlineto
          111 200 rmoveto
          75 75 75 -75 -75 -75 -75 vlineto
          225 hmoveto
          75 75 75 -75 -75 -75 -75 vlineto
          endchar
        </CharString>
        <CharString name="uni1ED8">
          364 800 rmoveto
          100 100 -100 200 100 -100 100 -300 -100 -100 -100 vlineto
          150 -1000 rmoveto
          200 200 150 100 100 500 -100 100 -500 -100 -100 -500 100 -100 150 hlineto
          -50 100 rmoveto
          500 300 -500 vlineto
          endchar
        </CharString>
        <CharString name="uni1EDA">
          664 600 rmoveto
          100 200 -100 -100 -500 -100 -100 -500 100 -100 400 100 100 hlineto
          -400 hmoveto
          500 200 -500 vlineto
          700 vmoveto
          100 100 100 -200 -100 -100 -100 vlineto
          endchar
        </CharString>
        <CharString name="uni1EDC">
          664 600 rmoveto
          100 200 -100 -100 -500 -100 -100 -500 100 -100 400 100 100 hlineto
          -400 hmoveto
          500 200 -500 vlineto
          700 vmoveto
          100 -100 100 -200 -100 100 -100 vlineto
          endchar
        </CharString>
        <CharString name="uni1EDE">
          714 600 rmoveto
          100 200 -100 -100 -300 100 -100 -100 -200 -100 -100 -500 100 -100 500 100 100 hlineto
          -500 hmoveto
          500 300 -500 vlineto
          -300 800 rmoveto
          200 -100 100 200 -300 hlineto
          endchar
        </CharString>
        <CharString name="uni1EE0">
          664 600 rmoveto
          100 200 -100 -100 -500 -100 -100 -500 100 -100 400 100 100 hlineto
          -400 hmoveto
          500 200 -500 vlineto
          -200 700 rmoveto
          100 100 100 -100 -100 -100 -100 vlineto
          300 hmoveto
          100 100 100 -100 -100 -100 -100 vlineto
          endchar
        </CharString>
        <CharString name="uni1EE2">
          263 -200 rmoveto
          201 200 100 100 100 500 100 200 -100 -100 -500 -100 -100 -500 100 -100 99 hlineto
          1 100 rmoveto
          500 200 -500 vlineto
          endchar
        </CharString>
        <CharString name="uni1EE4">
          314 -200 rmoveto
          200 200 150 100 100 600 -200 -600 -300 600 -200 -600 100 -100 150 hlineto
          endchar
        </CharString>
        <CharString name="uni1EE6">
          764 700 rmoveto
          -200 -600 -300 600 -200 -600 100 -100 500 100 100 hlineto
          -500 800 rmoveto
          200 -100 100 200 -300 hlineto
          100 -300 rmoveto
          100 100 -100 hlineto
          endchar
        </CharString>
        <CharString name="uni1EE8">
          564 600 rmoveto
          200 200 -100 -100 -300 -600 -100 600 -200 -600 100 -100 300 100 100 hlineto
          -100 700 rmoveto
          100 100 100 -200 -100 -100 -100 vlineto
          endchar
        </CharString>
        <CharString name="uni1EEA">
          564 600 rmoveto
          200 200 -100 -100 -300 -600 -100 600 -200 -600 100 -100 300 100 100 hlineto
          -200 700 rmoveto
          100 -100 100 -200 -100 100 -100 vlineto
          endchar
        </CharString>
        <CharString name="uni1EEC">
          564 600 rmoveto
          200 200 -100 -100 -300 -600 -100 600 -200 -600 100 -100 300 100 100 hlineto
          -400 800 rmoveto
          200 -100 100 200 -300 hlineto
          100 -300 rmoveto
          100 100 -100 hlineto
          endchar
        </CharString>
        <CharString name="uni1EEE">
          564 600 rmoveto
          200 200 -100 -100 -300 -600 -100 600 -200 -600 100 -100 300 100 100 hlineto
          -300 700 rmoveto
          100 100 100 -100 -100 -100 -100 vlineto
          300 hmoveto
          100 100 100 -100 -100 -100 -100 vlineto
          endchar
        </CharString>
        <CharString name="uni1EF0">
          214 -200 rmoveto
          200 200 50 100 100 500 200 200 -100 -100 -300 -600 -100 600 -200 -600 100 -100 50 hlineto
          endchar
        </CharString>
        <CharString name="uni1EF6">
          714 700 rmoveto
          -200 -300 -200 300 -200 -300 99 -100 101 -300 200 300 100 100 100 hlineto
          -450 500 rmoveto
          200 -100 100 200 -300 hlineto
          100 -300 rmoveto
          100 100 -100 hlineto
          endchar
        </CharString>
        <CharString name="uni2032">
          464 500 rmoveto
          100 200 -200 -200 -100 -100 200 hlineto
          endchar
        </CharString>
        <CharString name="uni2033">
          464 400 rmoveto
          200 100 100 200 -200 -200 -100 hlineto
          -200 hmoveto
          100 200 -200 -200 -100 -100 200 hlineto
          endchar
        </CharString>
        <CharString name="uni20A9">
          564 300 rmoveto
          100 100 100 100 -100 100 -100 -100 -100 200 -100 -200 -100 100 -100 100 -100 -100 100 -100 -100 -100 100 -100 100 -100 -200 -100 200 -100 100 100 100 -100 100 100 200 100 -200 hlineto
          100 400 rmoveto
          100 100 -100 hlineto
          -300 -400 rmoveto
          100 -100 -100 hlineto
          100 vmoveto
          -100 100 100 hlineto
          100 -100 rmoveto
          100 100 -100 vlineto
          endchar
        </CharString>
        <CharString name="uni20AA">
          164 500 rmoveto
          300 -200 100 300 -100 100 -400 -700 100 hlineto
          100 100 rmoveto
          100 -100 400 700 -100 -500 -300 200 -100 hlineto
          endchar
        </CharString>
        <CharString name="uni20AD">
          64 300 rmoveto
          100 -300 100 200 100 -100 100 -100 300 100 -100 100 -100 100 200 100 -200 100 100 100 100 100 -200 -100 -100 -100 -100 -100 -100 300 -100 -300 -100 hlineto
          endchar
        </CharString>
        <CharString name="uni20AE">
          714 700 rmoveto
          -600 -100 200 -200 -100 -100 100 -100 -100 -100 100 -100 200 200 100 100 -100 100 100 100 -100 100 200 hlineto
          endchar
        </CharString>
        <CharString name="uni20B1">
          364 200 rmoveto
          300 100 100 300 -100 100 -500 -200 -100 -100 100 -400 200 hlineto
          600 vmoveto
          200 -100 -200 hlineto
          200 -200 rmoveto
          -200 100 200 hlineto
          endchar
        </CharString>
        <CharString name="uni20B2">
          564 500 rmoveto
          -100 -100 -100 -100 200 -200 -200 200 -100 200 100 100 200 -100 100 100 100 100 -500 -100 -100 -100 -100 -300 100 -100 100 -100 500 400 -200 hlineto
          -400 -300 rmoveto
          -100 -100 100 hlineto
          endchar
        </CharString>
        <CharString name="uni20B4">
          64 500 rmoveto
          300 -100 -200 -100 -100 -100 100 -100 100 -100 400 100 -300 100 400 100 -300 100 200 100 100 100 -100 100 -100 100 -400 -100 300 -100 -400 hlineto
          endchar
        </CharString>
        <CharString name="uni20B8">
          714 500 rmoveto
          -600 -100 200 -400 200 400 200 hlineto
          200 vmoveto
          100 -600 -100 vlineto
          endchar
        </CharString>
        <CharString name="uni20B9">
          713 500 rmoveto
          -100 100 100 100 -599 -100 398 -100 -398 -100 299 -99 -201 -101 101 -98 100 -102 300 102 -100 98 -101 101 101 99 100 hlineto
          endchar
        </CharString>
        <CharString name="uni20BA">
          64 200 rmoveto
          100 -200 500 100 100 100 -200 -100 -200 200 200 100 -200 100 200 100 -200 100 -200 -200 -100 -100 100 -100 -100 hlineto
          endchar
        </CharString>
        <CharString name="uni20BC">
          514 700 rmoveto
          -200 -200 -200 -100 -100 -400 200 400 100 -400 200 400 100 -400 200 400 -100 100 -200 hlineto
          endchar
        </CharString>
        <CharString name="uni20BD">
          64 100 rmoveto
          100 -100 200 100 200 100 -200 100 300 100 100 200 -100 100 -500 -300 -100 -100 100 -100 -100 hlineto
          300 400 rmoveto
          200 -200 -200 hlineto
          endchar
        </CharString>
        <CharString name="uni20BE">
          64 hmoveto
          400 100 -100 100 -100 400 100 -200 100 200 100 -200 100 200 100 100 -100 100 -100 -100 -100 100 -100 -100 -200 -100 -100 -400 100 -100 -100 hlineto
          endchar
        </CharString>
        <CharString name="uni2116">
          164 400 rmoveto
          100 -100 100 -300 100 700 -100 -200 -100 100 -100 100 -100 -700 100 hlineto
          400 400 rmoveto
          200 300 -200 hlineto
          endchar
        </CharString>
        <CharString name="uni2117">
          764 600 rmoveto
          -100 100 -500 -100 500 -499 100 hlineto
          -185 436 rmoveto
          -330 -383 77 152 253 hlineto
          -415 -205 rmoveto
          499 -100 -499 vlineto
          100 -101 rmoveto
          500 101 -500 hlineto
          162 283 rmoveto
          77 176 -77 vlineto
          endchar
        </CharString>
        <CharString name="uni212E">
          764 200 rmoveto
          -200 -100 -300 200 500 300 -100 100 -500 -100 -100 -500 100 -100 500 100 100 hlineto
          -500 300 rmoveto
          200 300 -200 vlineto
          endchar
        </CharString>
        <CharString name="uni2190">
          464 200 rmoveto
          300 300 -300 200 -100 -100 -100 -100 -100 -100 -100 -100 100 -100 100 -100 100 -100 100 hlineto
          endchar
        </CharString>
        <CharString name="uni2191">
          264 300 rmoveto
          -300 300 300 200 100 -100 100 -100 100 -100 100 -100 -100 -100 -100 -100 -100 -100 -100 vlineto
          endchar
        </CharString>
        <CharString name="uni2192">
          364 500 rmoveto
          -300 -300 300 -200 100 100 100 100 100 100 100 100 -100 100 -100 100 -100 100 -100 hlineto
          endchar
        </CharString>
        <CharString name="uni2193">
          564 400 rmoveto
          300 -300 -300 -200 -100 100 -100 100 -100 100 -100 100 100 100 100 100 100 100 100 vlineto
          endchar
        </CharString>
        <CharString name="uni2605">
          464 500 rmoveto
          200 -100 -200 -300 -100 100 -100 100 -100 -100 -200 100 100 100 100 100 -100 100 -100 100 200 -100 100 100 100 100 100 vlineto
          endchar
        </CharString>
        <CharString name="uni2606">
          264 300 rmoveto
          100 300 -100 100 100 100 100 -300 200 -100 -200 -300 -100 100 -100 100 -100 -100 -200 100 100 100 100 100 -100 100 -100 100 200 -100 100 vlineto
          endchar
        </CharString>
        <CharString name="uni2610">
          64 hmoveto
          700 700 -700 hlineto
          600 -600 rmoveto
          -500 500 500 hlineto
          endchar
        </CharString>
        <CharString name="uni2611">
          764 700 rmoveto
          -700 -700 700 hlineto
          -200 400 rmoveto
          100 -300 -200 100 -100 100 -100 -100 100 -100 -200 500 400 hlineto
          -100 -400 rmoveto
          100 200 -100 hlineto
          endchar
        </CharString>
        <CharString name="uni2612">
          64 hmoveto
          700 700 -700 hlineto
          600 -600 rmoveto
          -500 500 500 hlineto
          -200 -400 rmoveto
          100 100 -100 100 -100 100 -100 -100 100 -100 100 hlineto
          100 vmoveto
          100 100 -100 hlineto
          -200 -300 rmoveto
          100 100 -100 hlineto
          endchar
        </CharString>
        <CharString name="uni263A">
          264 -100 rmoveto
          300 100 -300 100 -100 500 -100 -500 100 -100 100 hlineto
          700 vmoveto
          300 -100 100 -500 100 500 -100 100 -100 100 -300 hlineto
          100 -700 rmoveto
          100 100 -100 100 -100 -100 100 hlineto
          -100 200 rmoveto
          100 100 -100 hlineto
          -100 100 rmoveto
          100 100 -100 hlineto
          400 -700 rmoveto
          100 100 -100 hlineto
          -100 300 rmoveto
          100 100 -100 hlineto
          -300 vmoveto
          100 100 -100 hlineto
          endchar
        </CharString>
        <CharString name="uni263B">
          264 -100 rmoveto
          300 100 100 100 100 500 -100 100 -100 100 -300 -100 -100 -100 -100 -500 100 -100 100 hlineto
          100 100 rmoveto
          100 -100 100 100 -100 100 -100 vlineto
          300 vmoveto
          100 100 -100 vlineto
          -300 hmoveto
          100 100 -100 vlineto
          100 -200 rmoveto
          100 100 -100 vlineto
          endchar
        </CharString>
        <CharString name="uni2640">
          264 hmoveto
          100 -100 100 100 100 100 -100 100 100 100 -300 300 -100 -300 100 -100 100 -100 -100 hlineto
          300 200 rmoveto
          100 300 -100 100 -300 -100 300 hlineto
          endchar
        </CharString>
        <CharString name="uni2642">
          664 400 rmoveto
          100 300 -300 -100 100 -100 100 hlineto
          -500 -100 rmoveto
          300 -300 100 400 -400 hlineto
          -500 vmoveto
          300 100 -300 300 -100 -300 100 hlineto
          endchar
        </CharString>
        <CharString name="uni2660">
          164 hmoveto
          500 100 -200 100 300 200 -100 100 -100 100 -100 100 -100 -100 -100 -100 -100 -100 -100 -200 300 -100 -200 hlineto
          endchar
        </CharString>
        <CharString name="uni2663">
          64 200 rmoveto
          200 100 100 -200 -200 -100 500 100 -200 200 100 -100 200 300 -200 200 -300 -200 -200 hlineto
          500 -100 rmoveto
          -100 100 100 hlineto
          -300 hmoveto
          100 -100 -100 hlineto
          endchar
        </CharString>
        <CharString name="uni2666">
          264 100 rmoveto
          100 -100 100 100 100 100 100 100 100 100 -100 100 -100 100 -100 100 -100 -100 -100 -100 -100 -100 -100 -100 100 -100 100 hlineto
          endchar
        </CharString>
        <CharString name="uni2667">
          64 200 rmoveto
          200 100 100 -200 -200 -100 500 100 -200 200 100 -100 200 300 -200 200 -300 -200 -200 hlineto
          500 -100 rmoveto
          -100 100 100 hlineto
          -300 hmoveto
          100 -100 -100 hlineto
          endchar
        </CharString>
        <CharString name="uni2669">
          464 100 rmoveto
          100 600 -100 -400 -200 -100 -100 -100 100 -100 200 hlineto
          endchar
        </CharString>
        <CharString name="uni266A">
          564 400 rmoveto
          100 200 -100 100 -200 -400 -200 -100 -100 -100 100 -100 200 100 100 400 100 hlineto
          endchar
        </CharString>
        <CharString name="uni266B">
          364 400 rmoveto
          200 100 100 -200 -100 -100 -100 -100 100 -100 100 100 100 600 -300 -100 -200 -400 -100 -100 -100 -100 100 -100 100 100 100 hlineto
          endchar
        </CharString>
        <CharString name="uni266C">
          364 400 rmoveto
          300 -200 -100 -100 -100 -100 100 -100 100 100 100 700 -500 -500 -100 -100 -100 -100 100 -100 100 100 100 hlineto
          500 vmoveto
          100 300 -100 vlineto
          endchar
        </CharString>
        <CharString name="uni266D">
          364 100 rmoveto
          100 100 100 -100 400 -100 -700 300 100 vlineto
          200 vmoveto
          -200 100 300 -200 -100 vlineto
          endchar
        </CharString>
        <CharString name="uni266E">
          564 -100 rmoveto
          100 700 -100 -100 -100 -100 100 -100 -100 100 -100 300 -100 -700 100 100 100 100 -100 100 100 -100 100 hlineto
          endchar
        </CharString>
        <CharString name="uni266F">
          164 100 rmoveto
          100 -100 100 200 100 -100 100 200 100 100 -100 100 100 100 -100 100 -100 -200 -100 100 -100 -200 -100 -100 100 -100 -100 hlineto
          200 200 rmoveto
          100 -100 -100 hlineto
          endchar
        </CharString>
        <CharString name="uni26A2">
          164 300 rmoveto
          100 -100 -100 -100 100 -100 100 100 100 -100 100 100 100 100 -100 100 100 100 -200 200 -100 100 -200 -100 200 -200 100 -200 -100 200 -200 200 -100 -200 100 hlineto
          500 hmoveto
          100 200 -100 hlineto
          -200 hmoveto
          192 100 -192 hlineto
          endchar
        </CharString>
        <CharString name="uni26A3">
          164 500 rmoveto
          -100 -200 100 -300 100 -100 200 100 -200 200 200 -200 100 300 -100 100 100 -100 100 -100 100 300 -100 300 -300 -100 100 -100 100 -100 -100 100 -300 hlineto
          -100 vmoveto
          200 -200 -200 hlineto
          endchar
        </CharString>
        <CharString name="uni26A4">
          364 400 rmoveto
          100 -200 100 100 100 300 -100 100 -200 -100 -100 -100 -100 -100 100 -100 100 hlineto
          -200 -100 rmoveto
          200 -100 -200 100 -100 100 -100 -100 -100 100 -100 100 100 100 100 -100 100 100 100 vlineto
          200 400 rmoveto
          100 300 -300 -100 100 -100 100 hlineto
          -300 -100 rmoveto
          200 -200 -100 100 -100 hlineto
          endchar
        </CharString>
        <CharString name="uni26A5">
          164 hmoveto
          100 -100 100 100 100 100 -100 100 100 100 -300 200 -100 -200 100 -100 100 -100 -100 hlineto
          500 400 rmoveto
          100 300 -300 -100 100 -100 100 hlineto
          -500 -100 rmoveto
          300 -200 100 300 -400 hlineto
          endchar
        </CharString>
        <CharString name="uni26A6">
          664 400 rmoveto
          100 300 -300 -100 100 -100 100 hlineto
          -500 -200 rmoveto
          200 -200 100 300 -300 hlineto
          -400 vmoveto
          200 100 -200 200 -100 -200 100 hlineto
          200 400 rmoveto
          100 -100 100 -100 100 100 -100 100 -100 100 -100 hlineto
          endchar
        </CharString>
        <CharString name="uni26A7">
          276 700 rmoveto
          92 100 -92 100 -276 -300 92 -100 92 -200 92 -100 92 -100 -92 -100 92 -100 91 100 92 100 -92 100 92 100 -275 200 -92 100 92 -100 275 -200 92 300 -367 100 -92 100 92 hlineto
          459 -300 rmoveto
          92 300 -276 -100 92 -100 92 hlineto
          -551 hmoveto
          -92 100 92 hlineto
          endchar
        </CharString>
        <CharString name="uniF43A">
          714 700 rmoveto
          -200 -300 -200 300 -200 -300 99 -100 101 -300 200 300 100 100 100 hlineto
          -150 400 rmoveto
          100 -300 -100 vlineto
          endchar
        </CharString>
        <CharString name="uniF462">
          64 hmoveto
          200 100 100 100 100 100 100 -300 200 700 -200 -100 -100 -100 -100 -100 -100 300 -200 hlineto
          500 100 rmoveto
          100 100 100 -200 -100 -100 -100 vlineto
          endchar
        </CharString>
        <CharString name="uniF464">
          64 100 rmoveto
          100 -100 500 100 100 600 -200 -300 -300 300 -200 -300 100 -100 400 -200 -300 100 -200 hlineto
          450 600 rmoveto
          100 100 100 -200 -100 -100 -100 vlineto
          endchar
        </CharString>
        <CharString name="uniF465">
          336 300 rmoveto
          -200 -100 200 vlineto
          300 hmoveto
          -100 100 -200 300 -200 -700 400 100 100 hlineto
          50 600 rmoveto
          -700 200 700 vlineto
          -322 100 rmoveto
          100 100 100 -200 -100 -100 -100 vlineto
          endchar
        </CharString>
        <CharString name="uniF466">
          64 100 rmoveto
          100 -100 400 100 100 100 100 300 -100 100 -100 100 -400 -100 -100 -100 200 100 200 -100 100 -100 -300 -100 300 -100 -100 -100 -200 100 -200 hlineto
          400 600 rmoveto
          100 100 100 -200 -100 -100 -100 vlineto
          endchar
        </CharString>
        <CharString name="uniF467">
          364 600 rmoveto
          -100 -200 -100 300 -100 -700 100 300 100 -200 100 -100 300 100 100 500 -100 100 -300 hlineto
          200 -600 rmoveto
          -100 500 100 hlineto
          -100 200 rmoveto
          100 100 100 -200 -100 -100 -100 vlineto
          endchar
        </CharString>
        <CharString name="uniF468">
          64 hmoveto
          300 100 100 100 100 -200 200 700 -600 -100 -100 -300 200 -100 -100 -100 -100 hlineto
          200 300 rmoveto
          200 300 -300 -200 100 vlineto
          200 400 rmoveto
          100 100 100 -200 -100 -100 -100 vlineto
          endchar
        </CharString>
        <CharString name="uniF469">
          764 100 rmoveto
          -500 200 400 100 -400 200 500 100 -700 -700 700 hlineto
          -700 800 rmoveto
          100 200 -100 hlineto
          600 -200 rmoveto
          100 200 -100 hlineto
          -200 -200 rmoveto
          100 100 100 -200 -100 -100 -100 vlineto
          endchar
        </CharString>
        <CharString name="uniF498">
          364 600 rmoveto
          -100 -200 -100 300 -100 -700 100 300 100 -200 100 -100 300 100 100 500 -100 100 -300 hlineto
          200 -600 rmoveto
          -100 500 100 hlineto
          -100 400 rmoveto
          -200 200 200 vlineto
          -500 -200 rmoveto
          200 200 -200 hlineto
          endchar
        </CharString>
        <CharString name="uniF49A">
          764 600 rmoveto
          -100 100 -500 -100 -100 -500 100 -100 500 100 100 hlineto
          -500 500 rmoveto
          300 -200 -300 hlineto
          -300 vmoveto
          200 300 -200 vlineto
          700 vmoveto
          100 -300 -100 vlineto
          endchar
        </CharString>
        <CharString name="uniF49C">
          64 500 rmoveto
          200 100 300 -200 -500 -300 100 -100 500 100 100 500 -100 100 -500 -100 -100 hlineto
          500 -300 rmoveto
          -200 -300 200 vlineto
          300 500 rmoveto
          100 -300 -100 vlineto
          endchar
        </CharString>
        <CharString name="uniF49E">
          564 500 rmoveto
          100 -200 100 -200 -100 -100 -100 100 -500 200 300 200 -300 200 300 -100 100 -300 100 vlineto
          endchar
        </CharString>
        <CharString name="uniF4C6">
          564 -100 rmoveto
          200 800 -200 -300 -300 300 -200 -300 100 -100 400 hlineto
          -200 -500 rmoveto
          300 100 -300 hlineto
          endchar
        </CharString>
        <CharString name="uniF4D4">
          764 600 rmoveto
          -100 100 -600 -700 200 200 400 100 100 hlineto
          -500 hmoveto
          300 300 -300 vlineto
          -100 700 rmoveto
          -100 -100 100 -200 -100 100 -100 300 100 100 100 vlineto
          endchar
        </CharString>
        <CharString name="uniF4D6">
          64 100 rmoveto
          100 -100 400 100 100 100 100 300 -100 100 -100 100 -400 -100 -100 -100 200 100 200 -100 100 -100 -300 -100 300 -100 -100 -100 -200 100 -200 hlineto
          199 600 rmoveto
          200 200 -200 hlineto
          endchar
        </CharString>
        <CharString name="uniF4D8">
          64 hmoveto
          300 100 100 100 100 -200 200 700 -600 -100 -100 -300 200 -100 -100 -100 -100 hlineto
          200 300 rmoveto
          200 300 -300 -200 100 vlineto
          100 600 rmoveto
          -200 200 200 vlineto
          -500 -200 rmoveto
          200 200 -200 hlineto
          endchar
        </CharString>
        <CharString name="uniF50A">
          364 -200 rmoveto
          100 200 200 100 100 200 -100 100 100 200 -100 100 -500 -100 -100 -100 200 100 300 -200 -300 -100 300 -200 -300 100 -200 -100 100 -100 200 hlineto
          endchar
        </CharString>
        <CharString name="uniF512">
          464 800 rmoveto
          -100 -100 100 -200 -100 -100 -700 700 100 -500 200 400 100 -400 200 500 100 -100 100 vlineto
          -500 100 rmoveto
          500 100 -500 hlineto
          endchar
        </CharString>
        <CharString name="uniF514">
          464 800 rmoveto
          -100 -100 100 -200 -100 -100 -700 700 100 -500 200 400 100 -400 200 500 100 -100 100 vlineto
          -150 300 rmoveto
          -100 -200 100 -100 -200 400 200 vlineto
          endchar
        </CharString>
        <CharString name="uniF516">
          564 400 rmoveto
          -300 -100 300 -200 -300 100 -200 -100 100 -100 500 100 100 200 -100 100 100 200 -100 100 -500 -100 -100 -100 200 100 300 hlineto
          -100 400 rmoveto
          -100 -100 100 -200 -100 100 -100 300 100 100 100 vlineto
          endchar
        </CharString>
        <CharString name="uniF51C">
          764 600 rmoveto
          -100 100 -500 -100 -100 -500 100 -100 500 100 100 hlineto
          -500 500 rmoveto
          300 -200 -300 hlineto
          -300 vmoveto
          200 300 -200 vlineto
          -50 900 rmoveto
          -100 -200 100 -100 -200 400 200 vlineto
          endchar
        </CharString>
        <CharString name="uniF51E">
          464 800 rmoveto
          -100 -100 100 -200 -200 -100 -500 100 -100 500 100 100 500 -100 200 vlineto
          -400 -700 rmoveto
          200 300 -200 vlineto
          -300 500 rmoveto
          300 -200 -300 hlineto
          -100 500 rmoveto
          500 100 -500 hlineto
          endchar
        </CharString>
        <CharString name="uniF520">
          336 300 rmoveto
          -200 -100 200 vlineto
          300 hmoveto
          -100 100 -200 300 -200 -700 400 100 100 hlineto
          50 600 rmoveto
          -700 200 700 vlineto
          -222 100 rmoveto
          100 -300 -100 vlineto
          endchar
        </CharString>
        <CharString name="uniF522">
          64 100 rmoveto
          100 -100 400 100 100 100 100 300 -100 100 -100 100 -400 -100 -100 -100 200 100 200 -100 100 -100 -300 -100 300 -100 -100 -100 -200 100 -200 hlineto
          450 600 rmoveto
          100 -300 -100 vlineto
          endchar
        </CharString>
        <CharString name="uniF524">
          64 100 rmoveto
          100 -100 400 100 100 100 100 300 -100 100 -100 100 -400 -100 -100 -100 200 100 200 -100 100 -100 -300 -100 300 -100 -100 -100 -200 100 -200 hlineto
          400 800 rmoveto
          -100 -200 100 -100 -200 400 200 vlineto
          endchar
        </CharString>
        <CharString name="uniF526">
          764 200 rmoveto
          -200 -100 -200 100 -100 100 300 100 -300 100 100 100 200 -100 200 100 -100 100 -400 -100 -100 -100 -100 -300 100 -100 100 -100 400 100 100 hlineto
          -250 900 rmoveto
          -200 200 200 vlineto
          -500 -200 rmoveto
          200 200 -200 hlineto
          endchar
        </CharString>
        <CharString name="uniF528">
          64 hmoveto
          300 100 100 100 100 -200 200 700 -600 -100 -100 -300 200 -100 -100 -100 -100 hlineto
          200 300 rmoveto
          200 300 -300 -200 100 vlineto
          250 400 rmoveto
          100 -300 -100 vlineto
          endchar
        </CharString>
        <CharString name="uniF52A">
          64 hmoveto
          300 100 100 100 100 -200 200 700 -600 -100 -100 -300 200 -100 -100 -100 -100 hlineto
          200 300 rmoveto
          200 300 -300 -200 100 vlineto
          200 600 rmoveto
          -100 -200 100 -100 -200 400 200 vlineto
          endchar
        </CharString>
        <CharString name="uniF52C">
          364 600 rmoveto
          -100 -200 -100 300 -100 -700 100 300 100 -200 100 -100 300 100 100 500 -100 100 -300 hlineto
          200 -600 rmoveto
          -100 500 100 hlineto
          200 vmoveto
          100 -300 -100 vlineto
          endchar
        </CharString>
        <CharString name="uniF52E">
          364 600 rmoveto
          -100 -200 -100 300 -100 -700 100 300 100 -200 100 -100 300 100 100 500 -100 100 -300 hlineto
          200 -600 rmoveto
          -100 500 100 hlineto
          -100 400 rmoveto
          -100 -200 100 -100 -200 400 200 vlineto
          endchar
        </CharString>
        <CharString name="uniF532">
          564 -100 rmoveto
          200 800 -200 -100 -100 -100 -100 -100 -100 300 -200 -700 200 100 100 100 100 100 100 hlineto
          -200 -500 rmoveto
          300 100 -300 hlineto
          150 1100 rmoveto
          -100 -200 100 -100 -200 400 200 vlineto
          endchar
        </CharString>
        <CharString name="uniF536">
          336 300 rmoveto
          -200 -100 200 vlineto
          300 hmoveto
          -100 100 -200 300 -200 -700 400 100 100 hlineto
          50 600 rmoveto
          -700 200 700 vlineto
          -272 300 rmoveto
          -100 -200 100 -100 -200 400 200 vlineto
          endchar
        </CharString>
        <CharString name="uniF538">
          264 600 rmoveto
          300 -100 200 100 -100 100 -500 -100 -100 -200 100 -100 -100 -200 100 -100 500 100 100 100 -200 -100 -300 200 300 100 -300 hlineto
          200 600 rmoveto
          -200 200 200 vlineto
          -500 -200 rmoveto
          200 200 -200 hlineto
          endchar
        </CharString>
        <CharString name="uniF53E">
          414 -200 rmoveto
          100 200 150 100 100 100 -200 -100 -200 100 -100 300 101 100 199 -100 200 100 -100 100 -400 -100 -100 -100 -100 -300 100 -100 100 -100 150 hlineto
          endchar
        </CharString>
        <CharString name="uniF8FF">
          64 200 rmoveto
          100 -199 100 -1 100 100 100 -100 200 200 100 100 -100 200 100 100 -100 100 -200 100 -100 -100 100 -100 -100 100 -200 -100 -100 hlineto
          400 200 rmoveto
          100 100 -100 hlineto
          endchar
        </CharString>
        <CharString name="upsilondieresistonos">
          564 1000 rmoveto
          -200 200 200 vlineto
          -500 -200 rmoveto
          200 200 -200 hlineto
          -100 -500 rmoveto
          300 -100 -300 vlineto
          700 200 rmoveto
          -200 -300 -100 300 -200 -300 99 -100 101 -300 100 300 100 100 100 hlineto
          endchar
        </CharString>
        <CharString name="yen">
          514 100 rmoveto
          200 100 -200 100 100 100 100 300 -200 -300 -201 300 -199 -300 100 -100 100 -100 -200 -100 200 -100 200 hlineto
          endchar
        </CharString>
        <CharString name="zero">
          364 100 rmoveto
          100 -100 400 -100 -100 -100 -300 100 -100 100 -100 300 100 vlineto
          200 400 rmoveto
          -100 100 -100 100 -300 -100 200 -100 100 -400 100 100 100 hlineto
          endchar
        </CharString>
        <CharString name="zeroinferior">
          264 hmoveto
          300 100 -300 300 -100 -300 100 hlineto
          300 vmoveto
          300 -300 100 300 -100 100 -300 hlineto
          endchar
        </CharString>
        <CharString name="zerospace">
          endchar
        </CharString>
        <CharString name="zerosuperior">
          264 300 rmoveto
          300 100 -300 300 -100 -300 100 hlineto
          300 vmoveto
          300 -300 100 300 -100 100 -300 hlineto
          endchar
        </CharString>
</ttFont>
